<svg xmlns="http://www.w3.org/2000/svg" version="1.1" xmlns:xlink="http://www.w3.org/1999/xlink" xmlns:svgjs="http://svgjs.dev/svgjs" width="1500" height="420" viewBox="0 0 1500 420"><g transform="matrix(1,0,0,1,-0.9088589346208664,-0.6148517114700667)"><svg viewBox="0 0 396 111" data-background-color="#ffffff" preserveAspectRatio="xMidYMid meet" height="420" width="1500" xmlns="http://www.w3.org/2000/svg" xmlns:xlink="http://www.w3.org/1999/xlink"><g id="tight-bounds" transform="matrix(1,0,0,1,0.24006124126009354,0.16249652374565926)"><svg viewBox="0 0 395.52 110.67500695250868" height="110.67500695250868" width="395.52"><g><svg viewBox="0 0 395.52 110.67500695250868" height="110.67500695250868" width="395.52"><g transform="matrix(1,0,0,1,0,72.80131677266945)"><svg viewBox="0 0 395.52 37.87369017983923" height="37.87369017983923" width="395.52"><g id="textblocktransform"><svg viewBox="0 0 395.52 37.87369017983923" height="37.87369017983923" width="395.52" id="textblock"><g><svg viewBox="0 0 395.52 37.87369017983923" height="37.87369017983923" width="395.52"><g transform="matrix(1,0,0,1,0,0)"><svg width="395.52" viewBox="0.8931599999999951 -35.9463 516.6712761082042 49.474729999999994" height="37.87369017983923" data-palette-color="#3d3839"><path d="M9.292 7.133l13.978-3.283 1.463 2.366c-0.367 1.031-0.921 2.073-1.661 3.125-0.734 1.045-1.511 1.99-2.331 2.836v0l-12.79-0.08-1.918 1.431c-1.433-0.37-2.574-1.015-3.421-1.935v0l0.535-15.373-2.254-17.969 1.353-1.119c0.365 0.033 0.882 0.167 1.554 0.4 0.671 0.24 1.339 0.513 2.003 0.82 0.657 0.301 1.15 0.604 1.479 0.908v0l1.022 17.129zM46.258 3.897l4.226-1.442c0.331 0.367 0.673 0.904 1.025 1.611 0.359 0.7 0.603 1.425 0.732 2.177v0l-6.417 3.83c-0.81-0.167-1.692-0.479-2.646-0.935-0.954-0.45-1.677-0.872-2.171-1.266v0l-0.099-3.634c-1.504 1.957-3.055 3.55-4.653 4.778-1.591 1.228-3.009 1.961-4.254 2.197v0c-0.52-0.225-1.16-0.647-1.921-1.266-0.767-0.619-1.491-1.325-2.171-2.119-0.681-0.793-1.152-1.561-1.414-2.301v0l-0.091-13.759c0.411-1.098 1.034-2.223 1.869-3.375 0.835-1.146 1.687-2.089 2.556-2.83v0c2.344-0.621 4.635-1.068 6.873-1.339 2.239-0.265 4.749-0.081 7.531 0.552v0c0.398 0.369 0.77 0.819 1.115 1.353 0.339 0.541 0.639 1.058 0.9 1.552 0.255 0.494 0.41 0.873 0.465 1.135v0c-0.213 1.476-0.534 2.93-0.964 4.364-0.43 1.434-0.972 2.809-1.627 4.128v0zM33.336 5.013v0c1.154-0.53 2.39-1.562 3.708-3.095 1.318-1.54 2.491-3.333 3.52-5.378v0l-0.418-7.501c-1.358 0.079-2.655 0.252-3.89 0.522-1.242 0.27-2.411 0.614-3.507 1.031v0c-0.462 1.704-0.745 3.416-0.851 5.138-0.106 1.721-0.093 3.299 0.039 4.732 0.132 1.434 0.333 2.575 0.603 3.422 0.27 0.841 0.535 1.217 0.796 1.129zM58.007-11.708v0c0.568 0.988 1.408 1.828 2.522 2.522 1.115 0.7 2.364 1.423 3.75 2.17 1.385 0.747 2.772 1.641 4.159 2.681 1.394 1.047 2.668 2.407 3.82 4.08v0c-0.154 1.542-0.526 3.017-1.117 4.424-0.598 1.408-1.364 2.527-2.3 3.359v0c-1.584 0.551-3.351 0.922-5.302 1.113-1.944 0.197-4.039 0.161-6.285-0.108v0c-0.457-0.301-0.983-0.686-1.58-1.157-0.603-0.47-1.138-0.969-1.604-1.496v0l-0.24-6.52c0.55-0.241 1.203-0.413 1.957-0.516 0.761-0.103 1.46-0.098 2.097 0.016v0l1.197 5.347c1.467 0.126 2.963 0.025 4.49-0.301 1.52-0.333 2.773-0.783 3.76-1.351v0c-0.905-1.03-2.011-1.927-3.317-2.693-1.3-0.773-2.653-1.529-4.057-2.268-1.399-0.746-2.707-1.622-3.924-2.628-1.224-1.006-2.207-2.281-2.95-3.824v0c0.04-0.732 0.191-1.582 0.454-2.55 0.263-0.969 0.602-1.899 1.017-2.792 0.415-0.893 0.887-1.61 1.416-2.15v0c2.104-0.75 4.129-1.207 6.076-1.371 1.947-0.157 4.045-0.088 6.292 0.208v0c0.452 0.234 0.942 0.666 1.469 1.295 0.527 0.623 0.939 1.124 1.234 1.504v0l-0.245 6.194c-0.544 0.241-1.181 0.388-1.912 0.442-0.725 0.053-1.421 0.038-2.09-0.046v0l-0.821-5.023c-1.33-0.002-2.692 0.115-4.085 0.351-1.393 0.236-2.687 0.599-3.881 1.088zM109.437-26.524l-0.527 2.727-16.846 0.566 0.3 9.94 10.131-2.104c1.092 0.495 1.984 1.106 2.675 1.832 0.691 0.72 1.309 1.494 1.854 2.322v0l-0.568 2.88-13.872 0.386 0.995 13.986-2.743 0.867c-0.885-0.381-1.795-0.917-2.732-1.609-0.937-0.691-1.72-1.549-2.349-2.573v0l1.551-13.137-1.69-18.031 1.378-1.075c0.37 0.044 0.893 0.193 1.57 0.446 0.684 0.259 1.332 0.554 1.947 0.885v0l14.201-2.401c0.959 0.503 1.816 1.096 2.572 1.779 0.756 0.689 1.474 1.46 2.153 2.314zM119.838-0.875l4.264-1.365c0.287 0.379 0.606 0.926 0.957 1.642 0.351 0.709 0.58 1.442 0.687 2.197v0l-6.529 3.637c-1.255-0.502-2.365-1.124-3.332-1.868-0.967-0.75-1.707-1.543-2.218-2.377v0l0.185-16.332-0.354-14.371-3.823 1.192c-0.247-0.381-0.556-0.919-0.925-1.614-0.37-0.695-0.609-1.423-0.716-2.185v0l6.529-3.627c0.335 0.016 0.866 0.155 1.594 0.417 0.728 0.262 1.449 0.572 2.162 0.928 0.72 0.363 1.234 0.686 1.543 0.97v0l-1.164 18.477zM138.912-22.189v0c1.331 0.072 2.578 0.479 3.74 1.219 1.162 0.741 2.201 1.647 3.118 2.72 0.91 1.066 1.622 2.185 2.136 3.355v0l0.158 11.936c-0.242 0.545-0.619 1.203-1.13 1.974-0.512 0.771-1.075 1.518-1.689 2.24-0.614 0.729-1.223 1.338-1.829 1.826v0c-0.985 0.346-1.92 0.629-2.803 0.849-0.884 0.227-1.882 0.367-2.994 0.418-1.105 0.051-2.49 0.048-4.155-0.009v0c-0.672-0.236-1.469-0.673-2.393-1.312-0.93-0.638-1.778-1.363-2.543-2.175-0.764-0.806-1.264-1.587-1.499-2.344v0l0.019-13.535c0.236-0.672 0.559-1.424 0.967-2.257 0.409-0.833 0.872-1.642 1.391-2.426 0.511-0.791 1.02-1.395 1.528-1.812v0c0.87 0.187 1.632 0.506 2.286 0.956 0.648 0.457 1.15 0.908 1.504 1.352v0c-0.844 1.1-1.444 2.489-1.801 4.167-0.357 1.671-0.541 3.405-0.552 5.201-0.018 1.789 0.098 3.449 0.349 4.979 0.251 1.537 0.562 2.727 0.935 3.571v0c1.404 0.202 2.807 0.228 4.208 0.077 1.402-0.144 2.707-0.411 3.918-0.801v0c0.607-2.05 0.895-4.129 0.864-6.236-0.03-2.108-0.264-3.929-0.701-5.464v0c-1.165-0.807-2.215-1.446-3.152-1.917-0.93-0.478-2.001-0.919-3.214-1.324v0c0.543-1.119 1.054-2.047 1.534-2.783 0.48-0.736 1.08-1.551 1.8-2.445zM167.792-23.324v0c0.78 0.365 1.547 1.074 2.299 2.127 0.752 1.053 1.296 2.154 1.631 3.303v0l-0.213 6.222c-0.552 0.42-1.254 0.736-2.107 0.947-0.86 0.211-1.652 0.347-2.377 0.407v0l-1.231-1.096c0.122-1.232 0.189-2.322 0.201-3.269 0.019-0.941-0.051-1.776-0.211-2.504v0c-0.998 0.804-1.911 1.941-2.737 3.412-0.827 1.471-1.571 3.099-2.234 4.885v0l0.568 11.467c-0.726 0.227-1.568 0.357-2.527 0.392-0.959 0.035-1.822-0.034-2.589-0.206v0c-1.072-1.055-1.964-2.267-2.674-3.635v0c0.193-1.101 0.481-2.279 0.861-3.534 0.388-1.262 0.842-2.516 1.364-3.762v0l-0.065-1.789-0.85-6.833-4.287 1.257c-0.241-0.391-0.541-0.938-0.9-1.638-0.359-0.701-0.586-1.43-0.68-2.187v0l6.586-3.522c0.334 0.021 0.814 0.184 1.439 0.488 0.625 0.311 1.251 0.645 1.877 1.002 0.627 0.364 1.095 0.671 1.405 0.919v0l-0.057 3.935c1.29-1.935 2.606-3.541 3.947-4.817 1.348-1.277 2.535-1.934 3.561-1.971zM180.665-2.787l12.736-3.457c0.242 0.293 0.515 0.866 0.82 1.717 0.305 0.858 0.45 1.618 0.436 2.279v0c-1.409 0.641-2.881 1.273-4.418 1.897-1.543 0.625-2.977 1.203-4.302 1.735-1.332 0.538-2.423 0.97-3.274 1.294v0c-1.034-0.237-2.122-0.623-3.264-1.157-1.142-0.527-2.188-1.168-3.137-1.92-0.949-0.753-1.634-1.52-2.057-2.302v0l0.253-15.224c0.443-0.846 1.075-1.705 1.897-2.575 0.822-0.864 1.636-1.658 2.442-2.381v0c1.907-0.482 3.779-0.799 5.615-0.952 1.836-0.153 3.605-0.12 5.305 0.098v0c0.298 0.152 0.711 0.496 1.241 1.035 0.529 0.532 1.051 1.07 1.567 1.615 0.516 0.552 0.858 0.956 1.025 1.211v0l0.023 7.413c-0.848 0.658-1.989 1.354-3.422 2.089-1.439 0.735-3.03 1.451-4.77 2.148-1.734 0.697-3.474 1.32-5.218 1.87v0c0.051 0.625 0.119 1.237 0.202 1.835 0.084 0.591 0.184 1.169 0.3 1.732zM188.708-15.353l-0.633-3.213c-1.198-0.132-2.359-0.149-3.483-0.05-1.124 0.099-2.295 0.329-3.511 0.691v0c-0.304 1.042-0.538 2.163-0.704 3.362-0.166 1.192-0.281 2.402-0.346 3.631v0c1.413-0.501 2.895-1.147 4.446-1.938 1.551-0.792 2.961-1.619 4.231-2.483zM202.552-18.608v0c0.514 1.016 1.309 1.9 2.385 2.651 1.076 0.758 2.286 1.547 3.629 2.366 1.344 0.819 2.681 1.785 4.011 2.898 1.337 1.119 2.536 2.545 3.599 4.277v0c-0.235 1.532-0.685 2.985-1.351 4.359-0.672 1.374-1.497 2.451-2.474 3.231v0c-1.611 0.467-3.395 0.743-5.354 0.831-1.952 0.094-4.042-0.053-6.27-0.441v0c-0.44-0.324-0.945-0.737-1.516-1.239-0.577-0.502-1.085-1.028-1.523-1.579v0l0.106-6.524c0.562-0.212 1.223-0.349 1.982-0.411 0.766-0.062 1.463-0.02 2.093 0.127v0l0.911 5.403c1.458 0.203 2.958 0.182 4.5-0.063 1.535-0.252 2.811-0.635 3.827-1.149v0c-0.849-1.076-1.906-2.031-3.17-2.865-1.258-0.841-2.568-1.667-3.932-2.48-1.357-0.819-2.617-1.763-3.779-2.833-1.169-1.069-2.083-2.394-2.742-3.974v0c0.078-0.728 0.274-1.569 0.588-2.523 0.314-0.953 0.702-1.865 1.164-2.734 0.462-0.87 0.971-1.56 1.528-2.072v0c2.141-0.638 4.187-0.986 6.14-1.047 1.953-0.054 4.043 0.127 6.272 0.541v0c0.439 0.258 0.905 0.715 1.399 1.372 0.493 0.65 0.878 1.172 1.152 1.566v0l-0.573 6.173c-0.556 0.211-1.2 0.325-1.933 0.34-0.727 0.015-1.421-0.037-2.084-0.157v0l-0.554-5.06c-1.328-0.073-2.694-0.028-4.099 0.135-1.404 0.162-2.715 0.456-3.932 0.881zM236.648-4.348v0l15.286-3.196 1.259 2.521c-0.519 1.031-1.254 2.073-2.206 3.126-0.952 1.054-1.875 1.948-2.77 2.681v0l-9.74 0.074c-0.534-0.063-1.239-0.324-2.115-0.784-0.883-0.453-1.791-1.016-2.723-1.689-0.932-0.673-1.75-1.38-2.456-2.122-0.699-0.741-1.151-1.408-1.356-2v0l1.172-22.279c0.329-0.569 0.797-1.246 1.405-2.031 0.607-0.785 1.272-1.55 1.992-2.295 0.728-0.752 1.386-1.381 1.976-1.885v0c2.416-0.478 4.841-0.727 7.275-0.745 2.44-0.018 4.873 0.327 7.298 1.035v0c0.463 0.43 0.931 0.983 1.402 1.659 0.465 0.67 0.833 1.27 1.104 1.802v0l-0.635 7.315c-0.565 0.204-1.311 0.317-2.237 0.337-0.926 0.027-1.724-0.024-2.391-0.152v0l-0.737-6.215c-1.628-0.121-3.294-0.132-5.001-0.032-1.706 0.093-3.321 0.378-4.843 0.857v0c-0.481 1.59-0.87 3.467-1.168 5.629-0.304 2.156-0.497 4.384-0.579 6.684-0.083 2.307-0.056 4.487 0.079 6.54 0.129 2.052 0.365 3.774 0.709 5.165zM268.167-24.877v0c1.326 0.135 2.553 0.6 3.679 1.395 1.126 0.795 2.121 1.75 2.986 2.864 0.858 1.108 1.517 2.259 1.975 3.453v0l-0.406 11.929c-0.267 0.533-0.675 1.172-1.223 1.919-0.548 0.746-1.145 1.465-1.793 2.157-0.648 0.699-1.285 1.278-1.912 1.738v0c-1 0.299-1.947 0.537-2.841 0.716-0.894 0.185-1.897 0.277-3.011 0.276-1.107-0.002-2.49-0.07-4.149-0.206v0c-0.66-0.268-1.436-0.742-2.328-1.423-0.899-0.681-1.711-1.446-2.437-2.293-0.726-0.841-1.188-1.645-1.387-2.412v0l0.658-13.519c0.268-0.66 0.625-1.396 1.073-2.209 0.448-0.813 0.949-1.599 1.504-2.358 0.548-0.766 1.085-1.345 1.612-1.738v0c0.86 0.228 1.606 0.582 2.239 1.063 0.626 0.488 1.105 0.962 1.438 1.422v0c-0.895 1.059-1.56 2.418-1.996 4.078-0.436 1.653-0.701 3.376-0.797 5.168-0.102 1.787-0.065 3.45 0.113 4.991 0.178 1.547 0.433 2.751 0.765 3.611v0c1.393 0.269 2.793 0.36 4.2 0.275 1.407-0.078 2.724-0.283 3.951-0.614v0c0.703-2.019 1.089-4.082 1.158-6.189 0.07-2.107-0.078-3.937-0.442-5.49v0c-1.125-0.862-2.145-1.55-3.057-2.064-0.906-0.521-1.955-1.013-3.148-1.475v0c0.595-1.093 1.149-1.995 1.663-2.708 0.514-0.713 1.152-1.498 1.913-2.357zM302.807-4.268l4.043-0.99c0.288 0.397 0.578 0.964 0.869 1.7 0.291 0.73 0.465 1.476 0.523 2.237v0l-6.75 3.208c-0.861-0.444-1.768-1.018-2.719-1.724-0.951-0.712-1.702-1.484-2.252-2.318v0c0.619-2.079 1.041-4.181 1.267-6.305 0.226-2.117 0.307-4.097 0.243-5.937-0.057-1.841-0.229-3.343-0.515-4.507v0c-0.831 0.357-1.726 0.986-2.683 1.888-0.958 0.902-1.908 1.977-2.85 3.225-0.942 1.242-1.818 2.588-2.63 4.038v0l-0.43 10.686c-0.729 0.191-1.577 0.281-2.544 0.268-0.96-0.012-1.819-0.122-2.576-0.331v0c-1.013-1.106-1.845-2.359-2.494-3.761v0c0.318-1.49 0.743-2.924 1.273-4.305 0.53-1.387 1.12-2.69 1.768-3.908v0l0.059-0.75-0.516-6.866-4.343 1.046c-0.222-0.403-0.495-0.963-0.82-1.68-0.325-0.717-0.516-1.456-0.573-2.217v0l6.75-3.198c0.333 0.037 0.804 0.223 1.413 0.558 0.609 0.341 1.218 0.705 1.827 1.092 0.609 0.394 1.061 0.723 1.358 0.987v0l-0.251 4.177c1.879-2.097 3.763-3.731 5.65-4.901 1.888-1.17 3.445-1.748 4.672-1.733v0c0.497 0.273 1.038 0.743 1.623 1.41 0.592 0.667 1.129 1.411 1.613 2.23 0.49 0.819 0.827 1.627 1.01 2.423v0zM315.673-18.66v0c0.472 1.037 1.23 1.953 2.274 2.748 1.044 0.802 2.22 1.64 3.528 2.514 1.309 0.874 2.604 1.895 3.887 3.061 1.289 1.174 2.429 2.648 3.418 4.423v0c-0.298 1.521-0.808 2.954-1.53 4.299-0.728 1.345-1.597 2.387-2.605 3.126v0c-1.629 0.399-3.423 0.602-5.384 0.608-1.954 0.013-4.036-0.221-6.247-0.701v0c-0.426-0.342-0.914-0.776-1.463-1.3-0.556-0.525-1.041-1.072-1.456-1.641v0l0.376-6.514c0.571-0.188 1.236-0.298 1.997-0.328 0.767-0.031 1.463 0.041 2.086 0.213v0l0.687 5.436c1.448 0.264 2.948 0.305 4.498 0.124 1.544-0.188 2.835-0.518 3.872-0.99v0c-0.804-1.11-1.82-2.108-3.049-2.994-1.222-0.892-2.497-1.772-3.825-2.64-1.322-0.874-2.542-1.87-3.659-2.987-1.124-1.117-1.982-2.479-2.575-4.085v0c0.108-0.725 0.339-1.557 0.692-2.496 0.353-0.94 0.778-1.834 1.276-2.684 0.498-0.85 1.035-1.519 1.612-2.007v0c2.165-0.548 4.225-0.812 6.178-0.791 1.953 0.027 4.035 0.294 6.245 0.8v0c0.428 0.276 0.875 0.752 1.34 1.429 0.466 0.67 0.828 1.208 1.087 1.613v0l-0.828 6.144c-0.564 0.188-1.213 0.275-1.946 0.259-0.727-0.015-1.418-0.096-2.076-0.243v0l-0.344-5.078c-1.324-0.128-2.691-0.14-4.1-0.036-1.409 0.104-2.731 0.343-3.966 0.718zM341.569-2.893l8.468-1.842c0.218 0.307 0.449 0.844 0.693 1.611 0.244 0.768 0.34 1.484 0.287 2.15v0c-0.908 0.5-1.95 1-3.126 1.499-1.175 0.492-2.309 0.939-3.401 1.34-1.086 0.402-1.998 0.708-2.738 0.92v0c-0.852-0.292-1.782-0.736-2.792-1.333-1.01-0.59-1.91-1.287-2.699-2.09-0.79-0.804-1.29-1.605-1.5-2.405v0l1.517-14.182-3.85 0.637-1.14-3.425 5.248-4.267-0.233-3.989c0.577-0.577 1.274-1.143 2.091-1.699 0.81-0.556 1.583-0.974 2.318-1.252v0l1.801 1.343-0.403 6.901c1.363-0.093 2.765-0.132 4.205-0.116 1.447 0.009 2.878 0.098 4.294 0.266v0l0.383 3.993-1.586 1.544c-2.646-0.278-5.18-0.403-7.602-0.373v0c-0.27 1.486-0.482 3.107-0.634 4.863-0.152 1.75-0.202 3.479-0.152 5.188 0.05 1.709 0.234 3.282 0.551 4.718zM370.702-22.666v0c0.751 0.422 1.463 1.186 2.135 2.293 0.672 1.106 1.133 2.244 1.382 3.414v0l-0.674 6.189c-0.581 0.378-1.305 0.641-2.171 0.789-0.873 0.147-1.673 0.224-2.401 0.229v0l-1.146-1.184c0.213-1.22 0.36-2.301 0.443-3.245 0.089-0.937 0.08-1.775-0.025-2.513v0c-1.055 0.727-2.049 1.794-2.983 3.2-0.934 1.406-1.797 2.974-2.59 4.705v0l-0.283 11.478c-0.74 0.172-1.59 0.24-2.55 0.204-0.959-0.036-1.815-0.169-2.567-0.398v0c-0.991-1.132-1.79-2.406-2.397-3.823v0c0.274-1.084 0.648-2.237 1.122-3.46 0.48-1.229 1.026-2.446 1.639-3.651v0l0.067-1.788-0.34-6.878-4.369 0.936c-0.211-0.408-0.47-0.975-0.776-1.701-0.306-0.725-0.478-1.469-0.516-2.231v0l6.829-3.024c0.332 0.046 0.798 0.244 1.398 0.593 0.6 0.356 1.2 0.736 1.799 1.139 0.598 0.41 1.042 0.75 1.332 1.021v0l-0.348 3.919c1.43-1.834 2.861-3.338 4.293-4.511 1.439-1.173 2.671-1.74 3.697-1.702zM398.656-0.974l4.377-0.882c0.214 0.404 0.468 0.97 0.76 1.698 0.299 0.728 0.463 1.474 0.494 2.236v0l-6.86 2.966c-0.331-0.049-0.795-0.255-1.392-0.617-0.597-0.362-1.192-0.758-1.785-1.187-0.594-0.422-1.032-0.757-1.314-1.004v0l0.387-4.116c-1.843 1.841-3.648 3.356-5.413 4.547-1.766 1.197-3.128 1.773-4.087 1.726v0c-0.487-0.29-1.12-0.788-1.901-1.492-0.774-0.698-1.491-1.476-2.151-2.336-0.653-0.865-1.061-1.683-1.224-2.451v0l1.815-14.099-3.721 0.773c-0.274-0.414-0.543-0.99-0.808-1.731-0.265-0.747-0.412-1.501-0.443-2.263v0l6.859-2.956c0.845 0.468 1.737 1.074 2.676 1.82 0.946 0.739 1.665 1.535 2.159 2.386v0c-0.698 2.029-1.221 4.103-1.569 6.222-0.355 2.125-0.56 4.108-0.615 5.947-0.055 1.839 0.006 3.361 0.183 4.564v0c1.249-0.441 2.63-1.413 4.144-2.915 1.52-1.502 2.941-3.233 4.262-5.193v0l0.765-10.966c0.775-0.163 1.736-0.301 2.883-0.413 1.153-0.112 2.088-0.05 2.804 0.185v0c0.507 0.558 0.942 1.16 1.306 1.804 0.369 0.652 0.704 1.332 1.003 2.04v0c-0.165 1.354-0.59 2.778-1.275 4.274-0.685 1.489-1.544 2.973-2.576 4.452v0l-0.005 0.1zM412.214 0.242v0l11.924-2.221c0.216 0.313 0.423 0.905 0.621 1.777 0.204 0.88 0.271 1.648 0.2 2.305v0c-1.425 0.52-2.855 1.021-4.292 1.501-1.443 0.486-2.763 0.926-3.96 1.318-1.204 0.399-2.178 0.728-2.921 0.987v0c-1.01-0.324-2.061-0.801-3.154-1.43-1.093-0.623-2.081-1.349-2.962-2.18-0.881-0.831-1.499-1.654-1.853-2.469v0l1.546-15.147c0.513-0.806 1.216-1.607 2.109-2.405 0.893-0.791 1.771-1.512 2.637-2.164v0c1.941-0.318 3.833-0.475 5.675-0.471 1.843 0.004 3.602 0.187 5.278 0.549v0c0.411 0.284 0.939 0.761 1.582 1.431 0.644 0.664 1.12 1.205 1.43 1.623v0l-1.147 7.898c-1.282 0.362-2.654 0.284-4.113-0.232v0l-0.325-5.788c-1.086-0.162-2.16-0.239-3.222-0.232-1.062 0.007-2.18 0.124-3.355 0.351v0c-0.552 1.498-0.978 3.126-1.277 4.886-0.3 1.759-0.483 3.518-0.549 5.278-0.066 1.752-0.023 3.364 0.128 4.835zM438.246 1.727l8.528-1.538c0.207 0.314 0.418 0.859 0.635 1.634 0.217 0.776 0.287 1.495 0.21 2.159v0c-0.926 0.467-1.985 0.93-3.177 1.386-1.192 0.45-2.341 0.856-3.446 1.218-1.099 0.363-2.022 0.637-2.769 0.822v0c-0.841-0.322-1.755-0.799-2.743-1.431-0.988-0.626-1.863-1.354-2.624-2.186-0.761-0.831-1.232-1.65-1.413-2.457v0l2.023-14.118-3.871 0.499-1.017-3.463 5.397-4.078-0.091-3.994c0.597-0.556 1.314-1.097 2.15-1.624 0.829-0.527 1.616-0.917 2.361-1.169v0l1.752 1.407-0.648 6.883c1.366-0.045 2.768-0.033 4.206 0.033 1.446 0.061 2.873 0.201 4.282 0.42v0l0.24 4.004-1.64 1.486c-2.635-0.372-5.163-0.587-7.584-0.644v0c-0.323 1.475-0.592 3.088-0.806 4.837-0.214 1.743-0.326 3.469-0.338 5.179-0.011 1.71 0.116 3.288 0.383 4.735zM458.392-20.564v0c-1.649-1.048-3.113-2.381-4.393-3.997v0c0.072-0.53 0.338-1.119 0.8-1.767 0.461-0.648 1.002-1.241 1.622-1.778 0.62-0.537 1.201-0.852 1.743-0.946v0c0.525 0.038 1.105 0.287 1.741 0.747 0.628 0.467 1.204 1.009 1.727 1.629 0.517 0.619 0.806 1.195 0.867 1.727v0c-0.074 0.563-0.352 1.168-0.833 1.815-0.474 0.641-1.012 1.197-1.614 1.668-0.596 0.478-1.149 0.779-1.66 0.902zM457.768 2.622l4.506-1.018c0.204 0.409 0.44 1.031 0.707 1.866 0.274 0.835 0.417 1.634 0.428 2.397v0l-6.93 2.797c-2.43-1.339-4.041-2.953-4.833-4.841v0l2.163-15.494-3.699 0.825c-0.198-0.409-0.433-1.031-0.707-1.866-0.274-0.835-0.417-1.634-0.429-2.397v0l6.93-2.787c0.33 0.057 0.799 0.272 1.407 0.643 0.601 0.378 1.193 0.788 1.776 1.231 0.583 0.437 1.032 0.8 1.345 1.09v0l-2.176 10.811zM479.43-16.101v0c1.312 0.237 2.499 0.796 3.559 1.675 1.061 0.879 1.979 1.908 2.756 3.086 0.77 1.171 1.338 2.369 1.703 3.595v0l-1.327 11.863c-0.308 0.511-0.763 1.117-1.367 1.818-0.604 0.701-1.255 1.372-1.954 2.013-0.7 0.647-1.38 1.175-2.041 1.584v0c-1.02 0.22-1.983 0.385-2.888 0.494-0.905 0.116-1.913 0.13-3.023 0.043-1.103-0.087-2.477-0.262-4.121-0.526v0c-0.637-0.318-1.374-0.851-2.211-1.598-0.844-0.749-1.595-1.574-2.253-2.475-0.658-0.895-1.057-1.732-1.196-2.512v0l1.701-13.428c0.318-0.637 0.731-1.343 1.24-2.119 0.509-0.776 1.07-1.521 1.681-2.235 0.605-0.721 1.186-1.257 1.742-1.608v0c0.84 0.294 1.556 0.705 2.15 1.233 0.586 0.534 1.028 1.044 1.324 1.529v0c-0.974 0.986-1.742 2.29-2.305 3.911-0.562 1.614-0.96 3.311-1.194 5.092-0.24 1.773-0.331 3.435-0.273 4.984 0.058 1.556 0.219 2.776 0.484 3.659v0c1.368 0.375 2.757 0.575 4.166 0.599 1.409 0.031 2.737-0.072 3.987-0.307v0c0.857-1.959 1.401-3.986 1.633-6.081 0.232-2.095 0.226-3.931-0.017-5.508v0c-1.056-0.946-2.018-1.711-2.889-2.294-0.863-0.59-1.871-1.161-3.025-1.713v0c0.677-1.043 1.3-1.9 1.868-2.571 0.568-0.671 1.264-1.405 2.09-2.203zM512.374 7.123l4.107-0.675c0.257 0.418 0.502 1.006 0.735 1.762 0.234 0.751 0.35 1.507 0.348 2.271v0l-6.977 2.676c-0.824-0.509-1.684-1.152-2.578-1.928-0.894-0.783-1.582-1.611-2.066-2.485v0c0.778-2.025 1.361-4.088 1.751-6.188 0.389-2.094 0.622-4.061 0.701-5.901 0.085-1.84 0.03-3.351-0.166-4.533v0c-0.856 0.291-1.797 0.849-2.821 1.674-1.025 0.825-2.055 1.823-3.09 2.996-1.035 1.165-2.013 2.44-2.934 3.823v0l-1.255 10.62c-0.742 0.134-1.594 0.158-2.557 0.072-0.956-0.086-1.804-0.262-2.542-0.53v0c-0.925-1.181-1.657-2.495-2.197-3.942v0c0.432-1.461 0.966-2.858 1.602-4.194 0.636-1.342 1.324-2.595 2.065-3.76v0l0.117-0.743 0.016-6.886-4.411 0.708c-0.19-0.419-0.419-0.998-0.688-1.738-0.268-0.74-0.401-1.492-0.399-2.255v0l6.976-2.667c0.329 0.063 0.784 0.285 1.366 0.665 0.581 0.387 1.16 0.797 1.737 1.231 0.576 0.44 1.002 0.803 1.278 1.088v0l-0.573 4.146c2.036-1.946 4.04-3.429 6.012-4.45 1.973-1.021 3.57-1.477 4.791-1.367v0c0.474 0.31 0.977 0.821 1.509 1.531 0.539 0.711 1.017 1.494 1.436 2.348 0.425 0.855 0.699 1.686 0.82 2.493v0z" opacity="1" transform="matrix(1,0,0,1,0,0)" fill="#3d3839" class="wordmark-text-0" data-fill-palette-color="primary" id="text-0"></path></svg></g></svg></g></svg></g></svg></g><g transform="matrix(1,0,0,1,169.94701187881816,0)"><svg viewBox="0 0 55.625976242363635 61.279630710979866" height="61.279630710979866" width="55.625976242363635"><g><svg xmlns="http://www.w3.org/2000/svg" xmlns:xlink="http://www.w3.org/1999/xlink" version="1.1" x="0" y="0" viewBox="10.149416619861176 6.098861504526765 79.70127403836287 87.8018683031378" enable-background="new 0 0 100 100" xml:space="preserve" height="61.279630710979866" width="55.625976242363635" class="icon-icon-0" data-fill-palette-color="accent" id="icon-0"><g fill="#ffb130" data-fill-palette-color="accent"><path d="M57.803 35.792c0.877 0.88 2.248 0.941 3.053 0.135l1.844-1.844c0.808-0.807 0.746-2.175-0.135-3.055l-6.093-6.096c-0.883-0.879-2.251-0.94-3.057-0.135l-1.845 1.845c-0.807 0.806-0.746 2.174 0.136 3.055L57.803 35.792z" fill="#ffb130" data-fill-palette-color="accent"></path><path d="M75.286 18.848l-1.912 1.912c0 0-5.684-5.683-6.306-6.306-0.623-0.623-6.333-0.208-8.408 1.868-1.705 1.705-2.148 5.991-2.254 7.473 0.078 0.062 0.158 0.116 0.229 0.187l6.878 6.882c0.995 0.994 0.996 2.607 0 3.603l-2.273 2.275c-0.992 0.994-2.61 0.994-3.602 0l-2.776-2.776c-0.338-0.116-0.604-0.042-0.718 0.368-0.364 1.296-0.091 6.365-1.161 8.54-0.926 2.548-5.513 8.989-17.791 21.034S17.654 80.056 11.516 86.194c-4.207 4.207 2.267 10.473 6.37 6.37 2.202-2.202 65.558-65.559 65.558-65.559L75.286 18.848zM19.129 86.839l-3.477 3.478c-0.473 0.472-1.24 0.472-1.713 0-0.473-0.474-0.473-1.238 0-1.712l3.478-3.478c0.473-0.475 1.24-0.475 1.712 0C19.603 85.601 19.603 86.366 19.129 86.839z" fill="#ffb130" data-fill-palette-color="accent"></path><g fill="#ffb130" data-fill-palette-color="accent"><path d="M56.634 35.955c0.035-0.037 0.072-0.072 0.109-0.109l-0.368-0.368L56.634 35.955z" fill="#ffb130" data-fill-palette-color="accent"></path><path d="M53.204 36.791c-0.047-0.991 0.188-3.546 0.625-3.858l-2.309-2.309c-6.357 6.357-11.773 11.774-12.739 12.739-2.492 2.492 2.491 7.786 5.138 5.139 0.833-0.834 4.493-4.445 9.119-9.006C53.13 38.575 53.231 37.368 53.204 36.791z" fill="#ffb130" data-fill-palette-color="accent"></path></g><path d="M83.521 8.174c-2.804-2.699-7.059-2.492-8.615-0.934-0.426 0.424-3.131 3.13-6.882 6.88l5.347 5.347c2.759-2.716 4.586-4.517 4.685-4.615 0.414-0.416 1.21-0.035 1.678 0.432 0.467 0.467 7.717 7.717 7.717 7.717s0.898-0.969 2.179-2.18C90.91 19.61 86.325 10.872 83.521 8.174z" fill="#ffb130" data-fill-palette-color="accent"></path></g></svg></g></svg></g><g></g></svg></g><defs></defs></svg><rect width="395.52" height="110.67500695250868" fill="none" stroke="none" visibility="hidden"></rect></g></svg></g></svg>