<svg xmlns="http://www.w3.org/2000/svg" version="1.1" xmlns:xlink="http://www.w3.org/1999/xlink" xmlns:svgjs="http://svgjs.dev/svgjs" width="1500" height="344" viewBox="0 0 1500 344"><g transform="matrix(1,0,0,1,-0.9090909090909918,0.7966702298083419)"><svg viewBox="0 0 396 91" data-background-color="#ffffff" preserveAspectRatio="xMidYMid meet" height="344" width="1500" xmlns="http://www.w3.org/2000/svg" xmlns:xlink="http://www.w3.org/1999/xlink"><g id="tight-bounds" transform="matrix(1,0,0,1,0.2400000000000091,-0.21074706660627385)"><svg viewBox="0 0 395.52 91.42149413321253" height="91.42149413321253" width="395.52"><g><svg viewBox="0 0 397.4975999999999 91.87860160387858" height="91.42149413321253" width="395.52"><g><rect width="397.4975999999999" height="2.814120217143502" x="0" y="50.49244041113534" fill="#000000" opacity="1" stroke-width="0" stroke="transparent" fill-opacity="1" class="rect-qz-0" data-fill-palette-color="secondary" rx="1%" id="qz-0" data-palette-color="#000000"></rect></g><g transform="matrix(1,0,0,1,0.9887999999999693,60.67336747943985)"><svg viewBox="0 0 395.52 31.20523412443874" height="31.20523412443874" width="395.52"><g id="textblocktransform"><svg viewBox="0 0 395.52 31.20523412443874" height="31.20523412443874" width="395.52" id="textblock"><g><svg viewBox="0 0 395.52 31.20523412443874" height="31.20523412443874" width="395.52"><g transform="matrix(1,0,0,1,0,0)"><svg width="395.52" viewBox="1.65 -36.25 467.64000000000004 36.9" height="31.20523412443874" data-palette-color="#ffc604"><path d="M9.25-4.25Q9.25-2.8 9.55-2.15 9.85-1.5 10.65-1.28 11.45-1.05 13.25-1.05L13.25-1.05 18.7-1.05Q21.55-1.05 23.25-2.8 24.95-4.55 25.5-7.65L25.5-7.65Q25.5-7.8 25.78-7.78 26.05-7.75 26.05-7.6L26.05-7.6Q25.6-3.45 25.6-0.75L25.6-0.75Q25.6-0.35 25.45-0.18 25.3 0 24.85 0L24.85 0 1.75 0Q1.65 0 1.65-0.3 1.65-0.6 1.75-0.6L1.75-0.6Q3.65-0.6 4.53-0.85 5.4-1.1 5.7-1.83 6-2.55 6-4.05L6-4.05 6-27.2Q6-28.7 5.7-29.4 5.4-30.1 4.53-30.38 3.65-30.65 1.75-30.65L1.75-30.65Q1.65-30.65 1.65-30.95 1.65-31.25 1.75-31.25L1.75-31.25 4.2-31.2Q6.3-31.1 7.6-31.1L7.6-31.1Q9-31.1 11.1-31.2L11.1-31.2 13.5-31.25Q13.65-31.25 13.65-30.95 13.65-30.65 13.5-30.65L13.5-30.65Q11.65-30.65 10.75-30.38 9.85-30.1 9.55-29.38 9.25-28.65 9.25-27.15L9.25-27.15 9.25-4.25ZM35.65 0.5Q32.6 0.5 30.52-1.75 28.45-4 28.45-8.05L28.45-8.05Q28.45-11.65 30.15-14.35 31.85-17.05 34.42-18.5 37-19.95 39.6-19.95L39.6-19.95Q41.35-19.95 42.95-19.3 44.55-18.65 45.55-17.5L45.55-17.5 43.55-14.7Q43.55-16.55 41.95-17.75 40.35-18.95 38.35-18.95L38.35-18.95Q35.4-18.95 33.57-16.32 31.75-13.7 31.75-9.5L31.75-9.5Q31.75-5.75 33.27-3.45 34.8-1.15 37.35-1.15L37.35-1.15Q39.25-1.15 40.92-2.33 42.6-3.5 44.35-5.35L44.35-5.35 44.75-5Q42.55-2.5 40.42-1 38.3 0.5 35.65 0.5L35.65 0.5ZM44.9 0.45Q44.45 0.45 44-0.85 43.55-2.15 43.55-4L43.55-4 43.55-18.05Q44.55-18.45 45-18.75 45.45-19.05 45.85-19.75L45.85-19.75Q45.9-19.85 46.1-19.78 46.3-19.7 46.3-19.6L46.3-19.6 46.3-5.35Q46.3-3.65 46.7-2.93 47.1-2.2 48.05-2.2L48.05-2.2Q48.9-2.2 50.7-2.9L50.7-2.9 50.8-2.9Q51-2.9 51.07-2.68 51.15-2.45 50.95-2.4L50.95-2.4 45.15 0.4Q45.05 0.45 44.9 0.45L44.9 0.45ZM56.15-16.25Q56.15-14.5 57.3-13.48 58.45-12.45 60.7-11.3L60.7-11.3Q62.45-10.4 63.42-9.75 64.4-9.1 65.09-8.05 65.8-7 65.8-5.5L65.8-5.5Q65.8-2.95 63.9-1.2 62 0.55 58.75 0.55L58.75 0.55Q56.1 0.55 53.95-0.95L53.95-0.95Q53.65-1.15 53.65-1.55L53.65-1.55 53.55-5.45Q53.55-5.6 53.82-5.63 54.1-5.65 54.15-5.5L54.15-5.5Q55.1-2.95 56.62-1.68 58.15-0.4 60.15-0.4L60.15-0.4Q61.7-0.4 62.57-1.13 63.45-1.85 63.45-3.3L63.45-3.3Q63.45-4.7 62.82-5.68 62.2-6.65 61.3-7.23 60.4-7.8 58.85-8.6L58.85-8.6Q57.2-9.4 56.22-10.05 55.25-10.7 54.57-11.75 53.9-12.8 53.9-14.35L53.9-14.35Q53.9-17.05 55.92-18.48 57.95-19.9 60.7-19.9L60.7-19.9Q62.7-19.9 64.34-19.15L64.34-19.15Q64.65-19.05 64.72-18.93 64.8-18.8 64.8-18.6L64.8-18.6Q64.8-17.6 64.75-17.05L64.75-17.05 64.7-14.95Q64.7-14.85 64.4-14.85 64.09-14.85 64.09-14.95L64.09-14.95Q64.09-16.55 62.42-17.75 60.75-18.95 58.9-18.95L58.9-18.95Q57.6-18.95 56.87-18.28 56.15-17.6 56.15-16.25L56.15-16.25ZM81.84 0Q81.74 0 81.74-0.3 81.74-0.6 81.84-0.6L81.84-0.6Q83.74-0.6 84.64-0.85 85.54-1.1 85.87-1.83 86.19-2.55 86.19-4.05L86.19-4.05 86.19-27.2Q86.19-28.7 85.87-29.4 85.54-30.1 84.67-30.38 83.79-30.65 81.89-30.65L81.89-30.65Q81.79-30.65 81.79-30.95 81.79-31.25 81.89-31.25L81.89-31.25 101.99-31.25Q102.44-31.25 102.44-30.8L102.44-30.8 102.54-24.65Q102.54-24.5 102.27-24.48 101.99-24.45 101.99-24.6L101.99-24.6Q101.84-27.25 100.39-28.73 98.94-30.2 96.54-30.2L96.54-30.2 93.49-30.2Q91.79-30.2 90.94-29.95 90.09-29.7 89.74-29.05 89.39-28.4 89.39-27.15L89.39-27.15 89.39-4.25Q89.39-2.65 89.82-1.93 90.24-1.2 91.52-0.9 92.79-0.6 95.49-0.6L95.49-0.6Q95.64-0.6 95.64-0.3 95.64 0 95.49 0L95.49 0Q93.44 0 92.29-0.05L92.29-0.05 87.79-0.1 84.39-0.05Q83.49 0 81.84 0L81.84 0ZM99.44-11.05Q99.44-13.25 98.27-14.2 97.09-15.15 94.34-15.15L94.34-15.15 87.89-15.15 87.89-16.2 94.49-16.2Q97.14-16.2 98.27-17.03 99.39-17.85 99.39-19.7L99.39-19.7Q99.39-19.8 99.69-19.8 99.99-19.8 99.99-19.7L99.99-19.7 99.94-15.65Q99.94-14.2 99.99-13.45L99.99-13.45 100.04-11.05Q100.04-10.95 99.74-10.95 99.44-10.95 99.44-11.05L99.44-11.05ZM107.19 0Q107.04 0 107.04-0.3 107.04-0.6 107.19-0.6L107.19-0.6Q108.54-0.6 109.19-0.88 109.84-1.15 110.09-1.88 110.34-2.6 110.34-4.05L110.34-4.05 110.34-29.9Q110.34-31.7 109.99-32.5 109.64-33.3 108.74-33.3L108.74-33.3Q107.99-33.3 106.44-32.6L106.44-32.6 106.34-32.6Q106.19-32.6 106.11-32.85 106.04-33.1 106.19-33.15L106.19-33.15 112.59-36.2Q112.69-36.25 112.84-36.25L112.84-36.25Q112.99-36.25 113.14-36.13 113.29-36 113.29-35.85L113.29-35.85 113.29-4.05Q113.29-2.6 113.51-1.9 113.74-1.2 114.39-0.9 115.04-0.6 116.39-0.6L116.39-0.6Q116.54-0.6 116.54-0.3 116.54 0 116.39 0L116.39 0Q115.29 0 114.59-0.05L114.59-0.05 111.79-0.1 109.09-0.05Q108.39 0 107.19 0L107.19 0ZM129.64 0.65Q126.74 0.65 124.51-0.78 122.29-2.2 121.09-4.63 119.89-7.05 119.89-9.9L119.89-9.9Q119.89-13.15 121.46-15.43 123.04-17.7 125.51-18.82 127.99-19.95 130.54-19.95L130.54-19.95Q133.49-19.95 135.69-18.5 137.89-17.05 139.06-14.68 140.24-12.3 140.24-9.65L140.24-9.65Q140.24-6.55 138.79-4.23 137.34-1.9 134.91-0.63 132.49 0.65 129.64 0.65L129.64 0.65ZM131.09-0.3Q133.84-0.3 135.34-2.25 136.84-4.2 136.84-8.25L136.84-8.25Q136.84-11.35 135.81-13.8 134.79-16.25 132.99-17.63 131.19-19 128.89-19L128.89-19Q126.19-19 124.71-17.05 123.24-15.1 123.24-11.45L123.24-11.45Q123.24-8.4 124.24-5.85 125.24-3.3 127.04-1.8 128.84-0.3 131.09-0.3L131.09-0.3ZM148.98-14.1Q151.63-17.4 153.08-18.57 154.53-19.75 155.78-19.75L155.78-19.75Q156.88-19.75 157.88-19.15 158.88-18.55 158.88-17.7L158.88-17.7Q158.88-17.05 158.43-16.6 157.98-16.15 157.23-16.15L157.23-16.15Q156.78-16.15 156.46-16.32 156.13-16.5 155.68-16.85L155.68-16.85Q155.23-17.25 154.83-17.45 154.43-17.65 153.88-17.65L153.88-17.65Q153.13-17.65 152.23-16.9 151.33-16.15 149.18-13.55L149.18-13.55 148.98-14.1ZM144.28 0Q144.13 0 144.13-0.3 144.13-0.6 144.28-0.6L144.28-0.6Q145.63-0.6 146.28-0.88 146.93-1.15 147.16-1.85 147.38-2.55 147.38-4.05L147.38-4.05 147.38-13.95Q147.38-15.65 146.98-16.4 146.58-17.15 145.63-17.15L145.63-17.15Q144.83-17.15 142.93-16.4L142.93-16.4 142.83-16.4Q142.63-16.4 142.56-16.63 142.48-16.85 142.68-16.95L142.68-16.95 148.48-19.7Q148.58-19.75 148.78-19.75L148.78-19.75Q149.23-19.75 149.73-18.6 150.23-17.45 150.23-15.65L150.23-15.65 150.23-4.05Q150.23-2.55 150.61-1.85 150.98-1.15 151.98-0.88 152.98-0.6 155.08-0.6L155.08-0.6Q155.28-0.6 155.28-0.3 155.28 0 155.08 0L155.08 0Q153.48 0 152.53-0.05L152.53-0.05 148.83-0.1 146.08-0.05Q145.43 0 144.28 0L144.28 0ZM170.58 0.6Q167.68 0.6 165.63-0.75 163.58-2.1 162.51-4.3 161.43-6.5 161.43-9L161.43-9Q161.43-11.95 162.83-14.43 164.23-16.9 166.66-18.32 169.08-19.75 171.98-19.75L171.98-19.75Q174.78-19.75 176.28-18.25 177.78-16.75 177.78-14.05L177.78-14.05Q177.78-13.35 177.66-13.05 177.53-12.75 177.18-12.75L177.18-12.75 174.38-12.75 174.43-13.65Q174.43-16.15 173.33-17.45 172.23-18.75 170.33-18.75L170.33-18.75Q167.68-18.75 166.21-16.65 164.73-14.55 164.73-10.9L164.73-10.9Q164.73-6.55 166.78-3.85 168.83-1.15 172.53-1.15L172.53-1.15Q174.03-1.15 175.11-1.55 176.18-1.95 177.53-2.8L177.53-2.8 177.58-2.8Q177.73-2.8 177.86-2.63 177.98-2.45 177.88-2.3L177.88-2.3Q174.48 0.6 170.58 0.6L170.58 0.6ZM163.83-12.7L163.78-13.35 175.13-13.55 175.13-12.75 163.83-12.7ZM185.03-16.25Q185.03-14.5 186.18-13.48 187.33-12.45 189.58-11.3L189.58-11.3Q191.33-10.4 192.3-9.75 193.28-9.1 193.98-8.05 194.68-7 194.68-5.5L194.68-5.5Q194.68-2.95 192.78-1.2 190.88 0.55 187.63 0.55L187.63 0.55Q184.98 0.55 182.83-0.95L182.83-0.95Q182.53-1.15 182.53-1.55L182.53-1.55 182.43-5.45Q182.43-5.6 182.7-5.63 182.98-5.65 183.03-5.5L183.03-5.5Q183.98-2.95 185.5-1.68 187.03-0.4 189.03-0.4L189.03-0.4Q190.58-0.4 191.45-1.13 192.33-1.85 192.33-3.3L192.33-3.3Q192.33-4.7 191.7-5.68 191.08-6.65 190.18-7.23 189.28-7.8 187.73-8.6L187.73-8.6Q186.08-9.4 185.1-10.05 184.13-10.7 183.45-11.75 182.78-12.8 182.78-14.35L182.78-14.35Q182.78-17.05 184.8-18.48 186.83-19.9 189.58-19.9L189.58-19.9Q191.58-19.9 193.23-19.15L193.23-19.15Q193.53-19.05 193.6-18.93 193.68-18.8 193.68-18.6L193.68-18.6Q193.68-17.6 193.63-17.05L193.63-17.05 193.58-14.95Q193.58-14.85 193.28-14.85 192.98-14.85 192.98-14.95L192.98-14.95Q192.98-16.55 191.3-17.75 189.63-18.95 187.78-18.95L187.78-18.95Q186.48-18.95 185.75-18.28 185.03-17.6 185.03-16.25L185.03-16.25ZM229.17-31.8Q232.32-31.8 234.47-31.35 236.62-30.9 238.77-29.8L238.77-29.8Q239.12-29.6 239.17-29.45 239.22-29.3 239.32-28.7L239.32-28.7 239.92-22.75Q239.92-22.6 239.65-22.58 239.37-22.55 239.32-22.7L239.32-22.7Q237.02-31.05 229.02-31.05L229.02-31.05Q224.82-31.05 221.6-29.2 218.37-27.35 216.62-23.93 214.87-20.5 214.87-15.95L214.87-15.95Q214.87-11.6 216.82-7.98 218.77-4.35 222.05-2.25 225.32-0.15 229.17-0.15L229.17-0.15Q233.27-0.15 235.82-2.15 238.37-4.15 239.72-8.25L239.72-8.25Q239.72-8.35 239.97-8.35L239.97-8.35Q240.32-8.35 240.32-8.2L240.32-8.2 239.82-2.7Q239.77-2.1 239.67-1.95 239.57-1.8 239.27-1.6L239.27-1.6Q236.67-0.35 234.4 0.15 232.12 0.65 229.17 0.65L229.17 0.65Q223.92 0.65 219.8-1.43 215.67-3.5 213.37-7.25 211.07-11 211.07-15.85L211.07-15.85Q211.07-20.55 213.42-24.18 215.77-27.8 219.9-29.8 224.02-31.8 229.17-31.8L229.17-31.8ZM254.47 0.65Q251.57 0.65 249.35-0.78 247.12-2.2 245.92-4.63 244.72-7.05 244.72-9.9L244.72-9.9Q244.72-13.15 246.3-15.43 247.87-17.7 250.35-18.82 252.82-19.95 255.37-19.95L255.37-19.95Q258.32-19.95 260.52-18.5 262.72-17.05 263.9-14.68 265.07-12.3 265.07-9.65L265.07-9.65Q265.07-6.55 263.62-4.23 262.17-1.9 259.75-0.63 257.32 0.65 254.47 0.65L254.47 0.65ZM255.92-0.3Q258.67-0.3 260.17-2.25 261.67-4.2 261.67-8.25L261.67-8.25Q261.67-11.35 260.65-13.8 259.62-16.25 257.82-17.63 256.02-19 253.72-19L253.72-19Q251.02-19 249.55-17.05 248.07-15.1 248.07-11.45L248.07-11.45Q248.07-8.4 249.07-5.85 250.07-3.3 251.87-1.8 253.67-0.3 255.92-0.3L255.92-0.3ZM282.57 0Q282.42 0 282.42-0.3 282.42-0.6 282.57-0.6L282.57-0.6Q283.92-0.6 284.57-0.88 285.22-1.15 285.44-1.85 285.67-2.55 285.67-4.05L285.67-4.05 285.67-12.15Q285.67-15.15 284.54-16.53 283.42-17.9 281.07-17.9L281.07-17.9Q279.22-17.9 277.34-16.75 275.47-15.6 274.12-13.6L274.12-13.6 273.92-14.2Q276.12-17.15 278.27-18.55 280.42-19.95 282.72-19.95L282.72-19.95Q285.47-19.95 286.99-18.38 288.52-16.8 288.52-13.85L288.52-13.85 288.52-4.05Q288.52-2.55 288.74-1.85 288.97-1.15 289.62-0.88 290.27-0.6 291.62-0.6L291.62-0.6Q291.77-0.6 291.77-0.3 291.77 0 291.62 0L291.62 0Q290.47 0 289.82-0.05L289.82-0.05 287.12-0.1 284.37-0.05Q283.72 0 282.57 0L282.57 0ZM269.12 0Q268.97 0 268.97-0.3 268.97-0.6 269.12-0.6L269.12-0.6Q270.47-0.6 271.12-0.88 271.77-1.15 271.99-1.85 272.22-2.55 272.22-4.05L272.22-4.05 272.22-13.95Q272.22-15.65 271.82-16.4 271.42-17.15 270.47-17.15L270.47-17.15Q269.67-17.15 267.77-16.4L267.77-16.4 267.67-16.4Q267.47-16.4 267.39-16.63 267.32-16.85 267.52-16.95L267.52-16.95 273.32-19.7Q273.42-19.75 273.62-19.75L273.62-19.75Q274.07-19.75 274.57-18.6 275.07-17.45 275.07-15.65L275.07-15.65 275.07-4.05Q275.07-2.55 275.29-1.85 275.52-1.15 276.17-0.88 276.82-0.6 278.17-0.6L278.17-0.6Q278.32-0.6 278.32-0.3 278.32 0 278.17 0L278.17 0Q277.02 0 276.37-0.05L276.37-0.05 273.67-0.1 270.92-0.05Q270.27 0 269.12 0L269.12 0ZM297.72-16.25Q297.72-14.5 298.87-13.48 300.02-12.45 302.27-11.3L302.27-11.3Q304.02-10.4 304.99-9.75 305.97-9.1 306.67-8.05 307.37-7 307.37-5.5L307.37-5.5Q307.37-2.95 305.47-1.2 303.57 0.55 300.32 0.55L300.32 0.55Q297.67 0.55 295.52-0.95L295.52-0.95Q295.22-1.15 295.22-1.55L295.22-1.55 295.12-5.45Q295.12-5.6 295.39-5.63 295.67-5.65 295.72-5.5L295.72-5.5Q296.67-2.95 298.19-1.68 299.72-0.4 301.72-0.4L301.72-0.4Q303.27-0.4 304.14-1.13 305.02-1.85 305.02-3.3L305.02-3.3Q305.02-4.7 304.39-5.68 303.77-6.65 302.87-7.23 301.97-7.8 300.42-8.6L300.42-8.6Q298.77-9.4 297.79-10.05 296.82-10.7 296.14-11.75 295.47-12.8 295.47-14.35L295.47-14.35Q295.47-17.05 297.49-18.48 299.52-19.9 302.27-19.9L302.27-19.9Q304.27-19.9 305.92-19.15L305.92-19.15Q306.22-19.05 306.29-18.93 306.37-18.8 306.37-18.6L306.37-18.6Q306.37-17.6 306.32-17.05L306.32-17.05 306.27-14.95Q306.27-14.85 305.97-14.85 305.67-14.85 305.67-14.95L305.67-14.95Q305.67-16.55 303.99-17.75 302.32-18.95 300.47-18.95L300.47-18.95Q299.17-18.95 298.44-18.28 297.72-17.6 297.72-16.25L297.72-16.25ZM319.01 0.6Q316.91 0.6 315.56-0.35 314.21-1.3 314.21-3.5L314.21-3.5 314.21-15.25Q314.21-16.55 314.04-17.1 313.86-17.65 313.36-17.82 312.86-18 311.66-18L311.66-18Q311.46-18 311.46-18.32 311.46-18.65 311.66-18.65L311.66-18.65Q313.66-18.7 314.91-19.73 316.16-20.75 316.36-22.45L316.36-22.45Q316.36-22.6 316.76-22.6L316.76-22.6Q317.11-22.6 317.11-22.45L317.11-22.45 317.11-5.2Q317.11-1.15 321.06-1.15L321.06-1.15Q323.36-1.15 325.06-2.55L325.06-2.55 325.16-2.6Q325.36-2.6 325.46-2.38 325.56-2.15 325.41-2.05L325.41-2.05Q323.56-0.6 322.09 0 320.61 0.6 319.01 0.6L319.01 0.6ZM323.86-16.85Q320.66-17.65 316.26-17.65L316.26-17.65 316.26-18.75Q319.41-18.75 324.06-19.25L324.06-19.25Q324.16-19.25 324.29-18.88 324.41-18.5 324.41-18.05L324.41-18.05Q324.41-17.65 324.24-17.23 324.06-16.8 323.86-16.85L323.86-16.85ZM333.46-14.1Q336.11-17.4 337.56-18.57 339.01-19.75 340.26-19.75L340.26-19.75Q341.36-19.75 342.36-19.15 343.36-18.55 343.36-17.7L343.36-17.7Q343.36-17.05 342.91-16.6 342.46-16.15 341.71-16.15L341.71-16.15Q341.26-16.15 340.94-16.32 340.61-16.5 340.16-16.85L340.16-16.85Q339.71-17.25 339.31-17.45 338.91-17.65 338.36-17.65L338.36-17.65Q337.61-17.65 336.71-16.9 335.81-16.15 333.66-13.55L333.66-13.55 333.46-14.1ZM328.76 0Q328.61 0 328.61-0.3 328.61-0.6 328.76-0.6L328.76-0.6Q330.11-0.6 330.76-0.88 331.41-1.15 331.64-1.85 331.86-2.55 331.86-4.05L331.86-4.05 331.86-13.95Q331.86-15.65 331.46-16.4 331.06-17.15 330.11-17.15L330.11-17.15Q329.31-17.15 327.41-16.4L327.41-16.4 327.31-16.4Q327.11-16.4 327.04-16.63 326.96-16.85 327.16-16.95L327.16-16.95 332.96-19.7Q333.06-19.75 333.26-19.75L333.26-19.75Q333.71-19.75 334.21-18.6 334.71-17.45 334.71-15.65L334.71-15.65 334.71-4.05Q334.71-2.55 335.09-1.85 335.46-1.15 336.46-0.88 337.46-0.6 339.56-0.6L339.56-0.6Q339.76-0.6 339.76-0.3 339.76 0 339.56 0L339.56 0Q337.96 0 337.01-0.05L337.01-0.05 333.31-0.1 330.56-0.05Q329.91 0 328.76 0L328.76 0ZM353.81 0.4Q351.31 0.4 349.91-1.18 348.51-2.75 348.51-5.75L348.51-5.75 348.51-13.4Q348.51-15.35 348.16-16.23 347.81-17.1 347.01-17.1L347.01-17.1Q346.31-17.1 345.31-16.6L345.31-16.6 345.26-16.6Q345.06-16.6 344.96-16.88 344.86-17.15 345.06-17.2L345.06-17.2 350.61-19.7 350.81-19.75Q350.96-19.75 351.13-19.63 351.31-19.5 351.31-19.35L351.31-19.35 351.31-7.4Q351.31-1.6 355.51-1.6L355.51-1.6Q357.41-1.6 359.36-2.75 361.31-3.9 362.71-5.85L362.71-5.85 362.96-5.3Q360.71-2.35 358.46-0.98 356.21 0.4 353.81 0.4L353.81 0.4ZM364.56-5.35Q364.56-3.65 364.96-2.9 365.36-2.15 366.31-2.15L366.31-2.15Q367.16-2.15 368.96-2.85L368.96-2.85 369.06-2.85Q369.26-2.85 369.33-2.63 369.41-2.4 369.21-2.3L369.21-2.3 363.36 0.45 363.16 0.5Q362.66 0.5 362.21-0.65 361.76-1.8 361.76-3.65L361.76-3.65 361.76-13.4Q361.76-15.4 361.43-16.25 361.11-17.1 360.26-17.1L360.26-17.1Q359.56-17.1 358.56-16.6L358.56-16.6 358.51-16.6Q358.31-16.6 358.23-16.88 358.16-17.15 358.36-17.2L358.36-17.2 363.91-19.7 364.06-19.75Q364.21-19.75 364.38-19.63 364.56-19.5 364.56-19.35L364.56-19.35 364.56-5.35ZM380.91 0.6Q377.66 0.6 375.46-0.83 373.25-2.25 372.21-4.5 371.16-6.75 371.16-9.25L371.16-9.25Q371.16-12.45 372.75-14.83 374.36-17.2 376.88-18.48 379.41-19.75 382.06-19.75L382.06-19.75Q384.25-19.75 386.08-18.88 387.91-18 387.91-16.7L387.91-16.7Q387.91-16.05 387.43-15.58 386.96-15.1 386.16-15.1L386.16-15.1Q384.81-15.1 383.96-16.75L383.96-16.75Q383.31-17.75 382.56-18.25 381.81-18.75 380.41-18.75L380.41-18.75Q377.61-18.75 376.03-16.57 374.46-14.4 374.46-10.75L374.46-10.75Q374.46-6.55 376.56-3.85 378.66-1.15 382.86-1.15L382.86-1.15Q385.91-1.15 387.96-2.8L387.96-2.8 388-2.8Q388.16-2.8 388.28-2.65 388.41-2.5 388.31-2.4L388.31-2.4Q386.56-0.85 384.78-0.13 383 0.6 380.91 0.6L380.91 0.6ZM399.3 0.6Q397.2 0.6 395.85-0.35 394.5-1.3 394.5-3.5L394.5-3.5 394.5-15.25Q394.5-16.55 394.33-17.1 394.15-17.65 393.65-17.82 393.15-18 391.95-18L391.95-18Q391.75-18 391.75-18.32 391.75-18.65 391.95-18.65L391.95-18.65Q393.95-18.7 395.2-19.73 396.45-20.75 396.65-22.45L396.65-22.45Q396.65-22.6 397.05-22.6L397.05-22.6Q397.4-22.6 397.4-22.45L397.4-22.45 397.4-5.2Q397.4-1.15 401.35-1.15L401.35-1.15Q403.65-1.15 405.35-2.55L405.35-2.55 405.45-2.6Q405.65-2.6 405.75-2.38 405.85-2.15 405.7-2.05L405.7-2.05Q403.85-0.6 402.38 0 400.9 0.6 399.3 0.6L399.3 0.6ZM404.15-16.85Q400.95-17.65 396.55-17.65L396.55-17.65 396.55-18.75Q399.7-18.75 404.35-19.25L404.35-19.25Q404.45-19.25 404.58-18.88 404.7-18.5 404.7-18.05L404.7-18.05Q404.7-17.65 404.53-17.23 404.35-16.8 404.15-16.85L404.15-16.85ZM409.45 0Q409.35 0 409.35-0.3 409.35-0.6 409.45-0.6L409.45-0.6Q410.8-0.6 411.48-0.88 412.15-1.15 412.4-1.85 412.65-2.55 412.65-4.05L412.65-4.05 412.65-13.4Q412.65-15.2 412.28-16 411.9-16.8 411-16.8L411-16.8Q410.1-16.8 408.75-16.1L408.75-16.1 408.7-16.1Q408.5-16.1 408.4-16.35 408.3-16.6 408.45-16.7L408.45-16.7 414.95-19.7 415.15-19.75Q415.25-19.75 415.4-19.63 415.55-19.5 415.55-19.35L415.55-19.35Q415.55-19 415.5-17.35 415.45-15.7 415.45-13.45L415.45-13.45 415.45-4.05Q415.45-2.55 415.7-1.85 415.95-1.15 416.6-0.88 417.25-0.6 418.6-0.6L418.6-0.6Q418.75-0.6 418.75-0.3 418.75 0 418.6 0L418.6 0Q417.45 0 416.75-0.05L416.75-0.05 414.05-0.1 411.35-0.05Q410.65 0 409.45 0L409.45 0ZM413.65-25.6Q412.65-25.6 412.05-26.15 411.45-26.7 411.45-27.7L411.45-27.7Q411.45-28.7 412.05-29.25 412.65-29.8 413.65-29.8L413.65-29.8Q414.65-29.8 415.2-29.25 415.75-28.7 415.75-27.7L415.75-27.7Q415.75-26.7 415.2-26.15 414.65-25.6 413.65-25.6L413.65-25.6ZM432 0.65Q429.1 0.65 426.87-0.78 424.65-2.2 423.45-4.63 422.25-7.05 422.25-9.9L422.25-9.9Q422.25-13.15 423.82-15.43 425.4-17.7 427.87-18.82 430.35-19.95 432.9-19.95L432.9-19.95Q435.85-19.95 438.05-18.5 440.25-17.05 441.42-14.68 442.6-12.3 442.6-9.65L442.6-9.65Q442.6-6.55 441.15-4.23 439.7-1.9 437.27-0.63 434.85 0.65 432 0.65L432 0.65ZM433.45-0.3Q436.2-0.3 437.7-2.25 439.2-4.2 439.2-8.25L439.2-8.25Q439.2-11.35 438.17-13.8 437.15-16.25 435.35-17.63 433.55-19 431.25-19L431.25-19Q428.55-19 427.07-17.05 425.6-15.1 425.6-11.45L425.6-11.45Q425.6-8.4 426.6-5.85 427.6-3.3 429.4-1.8 431.2-0.3 433.45-0.3L433.45-0.3ZM460.09 0Q459.94 0 459.94-0.3 459.94-0.6 460.09-0.6L460.09-0.6Q461.44-0.6 462.09-0.88 462.75-1.15 462.97-1.85 463.19-2.55 463.19-4.05L463.19-4.05 463.19-12.15Q463.19-15.15 462.07-16.53 460.94-17.9 458.59-17.9L458.59-17.9Q456.75-17.9 454.87-16.75 453-15.6 451.64-13.6L451.64-13.6 451.44-14.2Q453.64-17.15 455.79-18.55 457.94-19.95 460.25-19.95L460.25-19.95Q463-19.95 464.52-18.38 466.04-16.8 466.04-13.85L466.04-13.85 466.04-4.05Q466.04-2.55 466.27-1.85 466.5-1.15 467.14-0.88 467.79-0.6 469.14-0.6L469.14-0.6Q469.29-0.6 469.29-0.3 469.29 0 469.14 0L469.14 0Q468 0 467.34-0.05L467.34-0.05 464.64-0.1 461.89-0.05Q461.25 0 460.09 0L460.09 0ZM446.64 0Q446.5 0 446.5-0.3 446.5-0.6 446.64-0.6L446.64-0.6Q448-0.6 448.64-0.88 449.29-1.15 449.52-1.85 449.75-2.55 449.75-4.05L449.75-4.05 449.75-13.95Q449.75-15.65 449.34-16.4 448.94-17.15 448-17.15L448-17.15Q447.19-17.15 445.29-16.4L445.29-16.4 445.19-16.4Q445-16.4 444.92-16.63 444.84-16.85 445.04-16.95L445.04-16.95 450.84-19.7Q450.94-19.75 451.14-19.75L451.14-19.75Q451.59-19.75 452.09-18.6 452.59-17.45 452.59-15.65L452.59-15.65 452.59-4.05Q452.59-2.55 452.82-1.85 453.04-1.15 453.69-0.88 454.34-0.6 455.69-0.6L455.69-0.6Q455.84-0.6 455.84-0.3 455.84 0 455.69 0L455.69 0Q454.54 0 453.89-0.05L453.89-0.05 451.19-0.1 448.44-0.05Q447.79 0 446.64 0L446.64 0Z" opacity="1" transform="matrix(1,0,0,1,0,0)" fill="#ffc604" class="wordmark-text-0" data-fill-palette-color="primary" id="text-0"></path></svg></g></svg></g></svg></g></svg></g><g transform="matrix(1,0,0,1,164.4374672913524,0)"><svg viewBox="0 0 68.62266541729517 43.12563355997434" height="43.12563355997434" width="68.62266541729517"><g><svg xmlns="http://www.w3.org/2000/svg" xmlns:xlink="http://www.w3.org/1999/xlink" version="1.1" x="7.9999999999999964" y="0" viewBox="4.46 12.622999999999998 89.08200000000001 73.005" enable-background="new 0 0 100 100" xml:space="preserve" height="43.12563355997434" width="52.622665417295174" class="icon-icon-0" data-fill-palette-color="accent" id="icon-0"><path fill="#000000" d="M11.397 69.293v16.334h42.459V69.293H11.397zM24.458 82.123h-9.792v-9.14h9.792V82.123zM34.261 82.123h-6.535v-9.14h6.535V82.123zM47.321 82.123h-9.803v-9.14h9.803V82.123z" data-fill-palette-color="accent"></path><rect x="50.725" y="49.303" fill="#000000" width="3.132" height="17.947" data-fill-palette-color="accent"></rect><rect x="36.504" y="59.751" fill="#000000" width="12.098" height="2.614" data-fill-palette-color="accent"></rect><rect x="36.504" y="55.036" fill="#000000" width="12.098" height="2.565" data-fill-palette-color="accent"></rect><rect x="36.504" y="64.583" fill="#000000" width="12.098" height="2.667" data-fill-palette-color="accent"></rect><rect x="31.012" y="53.684" fill="#000000" width="3.23" height="13.566" data-fill-palette-color="accent"></rect><polygon fill="#000000" points="28.806,67.293 28.806,64.53 16.831,64.53 16.831,67.25 " data-fill-palette-color="accent"></polygon><rect x="11.397" y="60.377" fill="#000000" width="3.268" height="6.873" data-fill-palette-color="accent"></rect><path fill="#000000" d="M77.023 35.129l-6.949-22.506-5.941 22.506h-3.268-3.078l-0.943-1.427H11.999L4.46 41.664h56.405v6.549h3.268v29.705h-2.155l-4.853 7.71h29.102l-4.853-7.71h-4.17V48.212h3.267v-6.549h3.269v6.536h9.802v-13.07H77.023zM16.397 38.766h-5.301l2.172-2.171h5.297L16.397 38.766zM25.542 38.766h-5.301l2.172-2.171h5.298L25.542 38.766zM34.696 38.766h-5.301l2.173-2.171h5.298L34.696 38.766zM43.84 38.766h-5.301l2.173-2.171h5.298L43.84 38.766zM47.797 38.766l2.174-2.171h5.317l1.437 2.171H47.797zM70.259 21.438l1.652 5.35-4.083 3.849L70.259 21.438zM64.128 44.928V38.4h9.812v6.528H64.128zM73.936 48.695l-6.535 5.55v-5.55H73.936zM73.551 77.917H67.4v-1.058l6.535-6.154L73.551 77.917zM73.936 66.191l-6.535 6.15v-4.951l6.535-6.15V66.191zM73.936 57.145L67.4 63.293v-4.949l6.535-6.152V57.145zM67.409 35.129l5.483-5.169 1.594 5.169H67.409z" data-fill-palette-color="accent"></path></svg></g></svg></g><g><rect width="87.90434729135241" height="2.814120217143502" y="39.311513342830835" x="233.06013270864756" fill="#000000" data-fill-palette-color="secondary"></rect><rect width="87.90434729135241" height="2.814120217143502" y="39.311513342830835" x="76.53311999999997" fill="#000000" data-fill-palette-color="secondary"></rect></g></svg></g><defs></defs></svg><rect width="395.52" height="91.42149413321253" fill="none" stroke="none" visibility="hidden"></rect></g></svg></g></svg>