<svg xmlns="http://www.w3.org/2000/svg" version="1.1" xmlns:xlink="http://www.w3.org/1999/xlink" xmlns:svgjs="http://svgjs.dev/svgjs" width="1500" height="1500" viewBox="0 0 1500 1500"><rect width="1500" height="1500" fill="#ffffff"></rect><g transform="matrix(0.6666666666666666,0,0,0.6666666666666666,250.13459933984706,207.66765223804128)"><svg viewBox="0 0 258 280" data-background-color="#ffffff" preserveAspectRatio="xMidYMid meet" height="1627" width="1500" xmlns="http://www.w3.org/2000/svg" xmlns:xlink="http://www.w3.org/1999/xlink"><g id="tight-bounds" transform="matrix(1,0,0,1,-0.034726629680534415,0.0002657675405544069)"><svg viewBox="0 0 258.06945325936107 280" height="280" width="258.06945325936107"><g><svg viewBox="0 0 278.2696 301.91673991611304" height="280" width="258.06945325936107"><g><svg viewBox="0 0 278.2696 301.91673991611304" height="301.91673991611304" width="278.2696"><g id="textblocktransform"><svg viewBox="0 0 278.2696 301.91673991611304" height="301.91673991611304" width="278.2696" id="textblock"><g><svg viewBox="0 0 278.2696 278.2696" height="278.2696" width="278.2696"><g transform="matrix(1,0,0,1,89.94321971048298,90.05290377244117)"><svg viewBox="0 0 98.38316057903407 98.16379245511769" height="98.16379245511769" width="98.38316057903407"><g id="icon-0"><svg xmlns="http://www.w3.org/2000/svg" xmlns:xlink="http://www.w3.org/1999/xlink" version="1.1" x="0" y="0" viewBox="0 0.20500000000000007 100.012 99.789" enable-background="new 0 0 100 100" xml:space="preserve" width="98.38316057903407" height="98.16379245511769" class="icon-xg-0" data-fill-palette-color="accent" id="xg-0"><g fill="#ffc604" data-fill-palette-color="accent"><path d="M12.762 72.146c-0.205 0.193-5.821 4.66-1.523 9.195 1.31 1.383 3.888 1.762 5.505 1.109-0.796 1.668-0.484 4.186 0.829 5.57 4.439 4.686 8.993-0.812 9.241-1.049 2.799-2.65 15.849-21.32 11.968-25.414C34.903 57.463 15.56 69.496 12.762 72.146z" fill="#ffc604" data-fill-palette-color="accent"></path><path d="M86.9 26.447c0.202-0.198 5.719-4.783 1.327-9.225-1.34-1.354-3.925-1.68-5.527-0.992 0.762-1.684 0.397-4.194-0.944-5.553-4.541-4.588-8.977 1.006-9.22 1.247-2.74 2.711-15.391 21.653-11.425 25.665C65.079 41.6 84.162 29.158 86.9 26.447z" fill="#ffc604" data-fill-palette-color="accent"></path><path d="M40.266 92.564c0 0.283-0.62 7.43 5.624 7.43 1.905 0 3.955-1.609 4.595-3.23 0.661 1.725 2.701 3.23 4.611 3.23 6.454 0 5.598-7.088 5.598-7.43 0-3.854-4.574-26.172-10.214-26.172C44.839 66.393 40.266 88.711 40.266 92.564z" fill="#ffc604" data-fill-palette-color="accent"></path><path d="M60.721 7.635c0-0.282 0.62-7.43-5.625-7.43-1.905 0-3.954 1.609-4.591 3.23-0.663-1.725-2.705-3.23-4.615-3.23-6.454 0-5.596 7.088-5.596 7.43 0 3.854 4.571 26.17 10.213 26.17C56.147 33.805 60.721 11.488 60.721 7.635z" fill="#ffc604" data-fill-palette-color="accent"></path><path d="M7.43 39.562C7.148 39.562 0 38.94 0 45.186c0 1.906 1.608 3.956 3.23 4.592C1.505 50.439 0 52.48 0 54.393c0 6.453 7.088 5.594 7.43 5.594 3.854 0 26.17-4.57 26.17-10.209C33.6 44.135 11.283 39.562 7.43 39.562z" fill="#ffc604" data-fill-palette-color="accent"></path><path d="M92.581 60.23c0.281 0 7.431 0.619 7.431-5.625 0-1.904-1.608-3.955-3.23-4.595 1.724-0.663 3.23-2.703 3.23-4.611 0-6.455-7.088-5.599-7.431-5.599-3.853 0-26.171 4.574-26.171 10.213C66.41 55.654 88.729 60.23 92.581 60.23z" fill="#ffc604" data-fill-palette-color="accent"></path><path d="M73.518 87.051c0.203 0.195 4.874 5.643 9.246 1.182 1.332-1.363 1.617-3.949 0.904-5.541 1.697 0.73 4.2 0.328 5.536-1.037 4.519-4.611-1.147-8.957-1.392-9.197-2.752-2.695-21.894-15.045-25.842-11.018C58.022 65.473 70.767 84.352 73.518 87.051z" fill="#ffc604" data-fill-palette-color="accent"></path><path d="M27.575 12.611c-0.194-0.203-4.7-5.788-9.204-1.461-1.374 1.32-1.736 3.901-1.071 5.514-1.674-0.784-4.188-0.457-5.565 0.867-4.655 4.472 0.877 8.987 1.112 9.235 2.672 2.776 21.432 15.699 25.499 11.792C42.414 34.648 30.246 15.391 27.575 12.611z" fill="#ffc604" data-fill-palette-color="accent"></path><path d="M58.257 50.008c0 4.545-3.688 8.23-8.234 8.23-4.546 0-8.232-3.686-8.232-8.23 0-4.549 3.687-8.236 8.232-8.236C54.569 41.771 58.257 45.459 58.257 50.008z" fill="#ffc604" data-fill-palette-color="accent"></path></g></svg></g></svg></g><g id="text-0"><path d="M28.758 99.906l-2.524 8.198-2.521-0.776 2.525-8.198zM26.528 107.148l-0.892 2.898-22.471-6.919 0.892-2.897z" fill="#3d3839" data-fill-palette-color="primary"></path><path d="M35.101 85.942l-1.253 2.772-10.46-4.728 1.253-2.771zM32.635 92.623v0l-2.187-1.244c0.33-0.73 0.431-1.435 0.301-2.114-0.135-0.682-0.492-1.324-1.07-1.926-0.584-0.604-1.362-1.125-2.332-1.563v0l0.556-1.401c1.375 0.621 2.489 1.395 3.342 2.32 0.856 0.919 1.41 1.894 1.662 2.924 0.258 1.033 0.167 2.034-0.272 3.004zM30.448 91.379l2.187 1.244c-0.413 0.915-1.004 1.649-1.772 2.204-0.762 0.557-1.616 0.892-2.561 1.005-0.936 0.109-1.862-0.043-2.776-0.457v0l1.085-2.647c0.773 0.35 1.53 0.377 2.269 0.083 0.743-0.285 1.265-0.763 1.568-1.432zM26.611 92.728l-1.085 2.647c-0.951-0.43-1.679-1.044-2.184-1.841-0.502-0.803-0.784-1.707-0.848-2.711-0.057-1.002 0.147-2.018 0.613-3.05v0l2.198 0.805c-0.386 0.853-0.456 1.671-0.212 2.455 0.245 0.783 0.751 1.348 1.518 1.695zM27.352 84.048l-2.047 4.53-2.198-0.805 2.118-4.686zM27.903 84.375l-0.556 1.401-3.922-1.773 0.62-1.372zM24.705 81.244v0l-1.252 2.771c-0.89-0.402-1.741-0.465-2.554-0.189-0.809 0.285-1.405 0.851-1.787 1.698v0l-2.376-1.074c0.494-1.093 1.164-1.954 2.011-2.584 0.847-0.63 1.794-1.008 2.841-1.133 1.047-0.125 2.087 0.045 3.117 0.511zM20.488 89.594v0l-1.669 2.318c-0.853-0.533-1.502-1.2-1.946-2-0.444-0.8-0.684-1.677-0.718-2.631-0.034-0.954 0.163-1.907 0.594-2.858v0l2.375 1.073c-0.338 0.749-0.412 1.492-0.22 2.229 0.194 0.731 0.722 1.354 1.584 1.869z" fill="#3d3839" data-fill-palette-color="primary"></path><path d="M37.728 73.477v0c-0.475-0.296-0.971-0.371-1.49-0.226-0.528 0.147-1.085 0.411-1.672 0.792-0.592 0.377-1.205 0.781-1.838 1.212-0.633 0.431-1.292 0.806-1.976 1.126-0.684 0.32-1.401 0.485-2.152 0.493-0.753-0.001-1.516-0.242-2.288-0.722v0c0 0 0.05-0.08 0.15-0.241 0.1-0.16 0.23-0.369 0.39-0.626 0.157-0.252 0.312-0.5 0.465-0.746 0.153-0.246 0.283-0.455 0.39-0.626 0.107-0.172 0.16-0.257 0.16-0.257v0c0.475 0.296 0.971 0.371 1.49 0.226 0.525-0.141 1.079-0.407 1.663-0.798 0.575-0.388 1.187-0.797 1.835-1.226 0.652-0.435 1.322-0.804 2.01-1.105 0.691-0.307 1.403-0.475 2.135-0.504 0.738-0.025 1.504 0.21 2.298 0.706v0c0 0-0.053 0.086-0.16 0.257-0.107 0.172-0.239 0.383-0.395 0.635-0.16 0.257-0.317 0.509-0.47 0.755-0.153 0.246-0.281 0.452-0.385 0.617-0.107 0.172-0.16 0.257-0.16 0.258zM40.335 78.445v0l-2.239-1.394c0.438-0.703 0.623-1.389 0.556-2.058-0.067-0.669-0.376-1.174-0.924-1.516v0l1.57-2.522c0.789 0.491 1.363 1.143 1.723 1.954 0.356 0.817 0.481 1.7 0.374 2.649-0.105 0.958-0.458 1.921-1.06 2.887zM27.867 73.656l-1.555 2.496c-0.772-0.481-1.346-1.108-1.72-1.882-0.373-0.764-0.515-1.606-0.426-2.527 0.086-0.915 0.392-1.795 0.919-2.641v0l2.238 1.394c-0.363 0.583-0.497 1.174-0.402 1.773 0.104 0.597 0.42 1.059 0.946 1.387zM32.964 80.877l0.999-2.674c0.886 0.425 1.691 0.509 2.413 0.253 0.726-0.262 1.3-0.73 1.72-1.405v0l2.239 1.394c-0.538 0.863-1.216 1.552-2.036 2.065-0.82 0.513-1.694 0.802-2.623 0.867-0.929 0.064-1.833-0.102-2.712-0.5zM32.462 66.661l-1.016 2.701c-0.912-0.433-1.721-0.524-2.425-0.273-0.708 0.257-1.274 0.726-1.698 1.407v0l-2.238-1.394c0.552-0.886 1.232-1.577 2.041-2.074 0.8-0.494 1.665-0.781 2.595-0.86 0.927-0.074 1.84 0.091 2.741 0.493z" fill="#3d3839" data-fill-palette-color="primary"></path><path d="M48.411 50.848l-4.546 4.977-1.992-1.82 4.546-4.976zM50.042 64.449l-17.361-15.857 2.044-2.238 17.361 15.857zM35.991 48.864l-1.94-1.771 5.785-6.334 1.94 1.771z" fill="#3d3839" data-fill-palette-color="primary"></path><path d="M62.397 51.959l-2.241 2.055-16.235-17.7 2.241-2.056z" fill="#3d3839" data-fill-palette-color="primary"></path><path d="M72.171 37.223l-2.455 1.795-2.893-3.956 2.455-1.795zM64.602 42.758l-2.447 1.789-2.893-3.956 2.447-1.789zM62.077 33.776l-0.155 0.113-1.557-2.128 0.155-0.114zM71.06 46.059l-0.155 0.113-1.557-2.128 0.155-0.114zM61.727 38.826l-2.447 1.79c-0.736-1.006-1.174-2.062-1.316-3.169-0.136-1.111 0.001-2.167 0.413-3.168 0.407-1.007 1.086-1.858 2.037-2.554v0l1.557 2.129c-0.788 0.577-1.211 1.299-1.269 2.167-0.052 0.864 0.289 1.799 1.025 2.805zM69.296 33.291v0l-2.455 1.796c-0.736-1.006-1.52-1.617-2.355-1.834-0.834-0.216-1.653-0.03-2.458 0.559v0l-1.557-2.129c0.952-0.696 1.969-1.085 3.052-1.168 1.079-0.088 2.127 0.101 3.144 0.568 1.017 0.466 1.893 1.202 2.629 2.208zM62.137 44.522v0l2.447-1.789c0.72 0.984 1.503 1.588 2.351 1.811 0.853 0.219 1.674 0.04 2.462-0.536v0l1.557 2.129c-0.952 0.696-1.969 1.085-3.052 1.167-1.079 0.088-2.127-0.101-3.144-0.567-1.012-0.47-1.885-1.208-2.621-2.215zM69.698 38.993l2.455-1.795c0.736 1.006 1.171 2.064 1.308 3.175 0.136 1.111-0.001 2.167-0.413 3.168-0.407 1.007-1.086 1.858-2.037 2.554v0l-1.557-2.129c0.805-0.588 1.227-1.318 1.265-2.189 0.039-0.871-0.302-1.799-1.021-2.784z" fill="#3d3839" data-fill-palette-color="primary"></path><path d="M81.641 38.655l-2.635 1.498-8.323-14.644 2.635-1.498zM76.069 28.851l-1.186 0.674c-0.559-0.984-0.898-1.961-1.016-2.932-0.118-0.971-0.017-1.842 0.305-2.614 0.318-0.762 0.826-1.341 1.523-1.737v0l1.169 2.589c-0.679 0.386-1.089 0.96-1.229 1.722-0.15 0.759-0.005 1.525 0.434 2.298zM78.626 21.796l0.357 2.714c-0.344-0.06-0.709-0.062-1.095-0.005-0.395 0.054-0.736 0.163-1.024 0.326v0l-1.169-2.589c0.445-0.253 0.928-0.419 1.448-0.498 0.515-0.076 1.009-0.058 1.483 0.052z" fill="#3d3839" data-fill-palette-color="primary"></path><path d="M96.236 23.557l-10.439 4.525-0.86-1.984 10.439-4.525zM93.891 33.339l-0.148 0.065-1.049-2.42 0.148-0.064zM88.309 28.667l-2.782 1.206-1.949-4.496 2.781-1.206zM95.376 21.573l-2.781 1.205-0.692-1.594 2.782-1.206zM94.685 19.978v0l-2.782 1.206c-0.389-0.896-0.979-1.514-1.772-1.853-0.784-0.335-1.606-0.317-2.465 0.056v0l-1.037-2.392c1.1-0.477 2.175-0.664 3.226-0.562 1.05 0.103 2.005 0.46 2.865 1.071 0.86 0.611 1.515 1.436 1.965 2.474zM94.572 27.009v0l2.821-0.606c0.263 0.929 0.288 1.85 0.075 2.765-0.207 0.912-0.615 1.731-1.225 2.458-0.604 0.724-1.388 1.295-2.352 1.713v0l-1.049-2.419c0.735-0.319 1.28-0.816 1.634-1.49 0.347-0.672 0.379-1.479 0.096-2.421zM86.371 24.199l-2.781 1.206c-0.504-1.162-0.701-2.295-0.592-3.4 0.117-1.101 0.487-2.094 1.108-2.98 0.619-0.892 1.469-1.573 2.551-2.042v0l1.037 2.392c-0.896 0.389-1.465 1.006-1.708 1.852-0.239 0.838-0.11 1.828 0.385 2.972zM85.527 29.873v0l2.782-1.206c0.488 1.125 1.119 1.886 1.893 2.285 0.784 0.402 1.623 0.408 2.52 0.02v0l1.049 2.42c-1.082 0.469-2.158 0.627-3.23 0.475-1.074-0.158-2.056-0.577-2.946-1.256-0.883-0.682-1.572-1.594-2.068-2.738z" fill="#3d3839" data-fill-palette-color="primary"></path><path d="M109.229 22.998v0c-0.156-0.537-0.475-0.925-0.958-1.163-0.491-0.243-1.082-0.419-1.773-0.527-0.693-0.115-1.418-0.223-2.178-0.326-0.759-0.102-1.5-0.263-2.222-0.481-0.723-0.218-1.366-0.575-1.931-1.071-0.56-0.504-0.967-1.193-1.22-2.066v0c0 0 0.091-0.026 0.272-0.079 0.181-0.053 0.417-0.121 0.708-0.205 0.285-0.083 0.566-0.164 0.844-0.245 0.278-0.081 0.514-0.149 0.709-0.206 0.194-0.056 0.291-0.084 0.291-0.084v0c0.156 0.537 0.475 0.925 0.958 1.163 0.485 0.245 1.075 0.418 1.77 0.518 0.687 0.095 1.415 0.2 2.185 0.313 0.776 0.112 1.52 0.285 2.234 0.52 0.72 0.233 1.362 0.584 1.925 1.052 0.565 0.474 0.978 1.161 1.239 2.06v0c0 0-0.097 0.028-0.291 0.084-0.194 0.056-0.433 0.126-0.718 0.209-0.291 0.084-0.576 0.167-0.854 0.247-0.278 0.081-0.511 0.148-0.699 0.203-0.194 0.056-0.291 0.084-0.291 0.084zM107.85 28.438v0l-0.734-2.533c0.796-0.231 1.392-0.618 1.788-1.161 0.397-0.543 0.505-1.125 0.325-1.746v0l2.853-0.827c0.259 0.893 0.251 1.761-0.023 2.605-0.281 0.846-0.778 1.586-1.492 2.221-0.718 0.643-1.624 1.123-2.717 1.441zM101.771 16.545l-2.824 0.819c-0.253-0.873-0.261-1.723-0.024-2.55 0.233-0.818 0.69-1.54 1.371-2.165 0.675-0.624 1.491-1.074 2.449-1.352v0l0.734 2.533c-0.66 0.191-1.154 0.542-1.484 1.051-0.321 0.514-0.395 1.068-0.222 1.664zM100.74 25.323l2.53-1.323c0.376 0.908 0.918 1.508 1.627 1.801 0.715 0.29 1.455 0.325 2.219 0.104v0l0.734 2.533c-0.977 0.283-1.942 0.342-2.894 0.176-0.953-0.166-1.796-0.535-2.531-1.107-0.734-0.573-1.296-1.3-1.685-2.184zM109.862 14.409l-2.559 1.331c-0.39-0.932-0.93-1.54-1.623-1.823-0.699-0.281-1.433-0.31-2.203-0.087v0l-0.734-2.533c1.003-0.291 1.971-0.351 2.904-0.179 0.925 0.167 1.76 0.531 2.505 1.093 0.739 0.564 1.309 1.297 1.711 2.198z" fill="#3d3839" data-fill-palette-color="primary"></path><path d="M126.518 18.614l-3.02 0.267-1.066-12.058 3.02-0.267zM125.452 6.556l-3.02 0.267c-0.107-1.215 0.076-2.319 0.549-3.315 0.467-0.988 1.177-1.788 2.131-2.399 0.947-0.604 2.065-0.964 3.353-1.078v0l0.233 2.627c-1.107 0.098-1.949 0.483-2.525 1.156-0.583 0.674-0.823 1.588-0.721 2.742zM123.496 18.851v0l3.019-0.267c0.102 1.154 0.5 2.018 1.193 2.592 0.687 0.575 1.583 0.813 2.691 0.716v0l0.232 2.627c-1.288 0.114-2.452-0.05-3.492-0.492-1.047-0.448-1.887-1.111-2.52-1.989-0.639-0.883-1.014-1.946-1.123-3.187zM135.755 5.949l-2.708 0.808c-0.258-1.384-0.77-2.437-1.538-3.161-0.767-0.723-1.718-1.035-2.851-0.935v0l-0.233-2.627c1.886-0.167 3.473 0.271 4.762 1.314 1.283 1.05 2.139 2.583 2.568 4.601zM133.961 17.094v0l2.804 0.279c-0.066 2.082-0.639 3.752-1.718 5.011-1.086 1.259-2.571 1.972-4.456 2.139v0l-0.233-2.627c1.134-0.1 2.015-0.574 2.644-1.421 0.628-0.847 0.948-1.974 0.959-3.381z" fill="#3d3839" data-fill-palette-color="primary"></path><path d="M152.613 18.159l-3.038-0.143 0.231-4.896 3.038 0.144zM143.247 17.716l-3.028-0.143 0.231-4.895 3.028 0.143zM146.919 9.14l-0.191-0.009 0.124-2.634 0.192 0.009zM146.201 24.34l-0.192-0.009 0.125-2.634 0.192 0.009zM143.477 12.852l-3.028-0.143c0.059-1.245 0.38-2.342 0.965-3.293 0.591-0.95 1.361-1.686 2.309-2.207 0.949-0.528 2.012-0.765 3.19-0.709v0l-0.125 2.634c-0.976-0.046-1.758 0.251-2.348 0.89-0.583 0.64-0.904 1.583-0.963 2.828zM152.843 13.294v0l-3.038-0.143c0.059-1.245-0.169-2.213-0.682-2.905-0.514-0.692-1.268-1.061-2.264-1.109v0l0.124-2.634c1.178 0.056 2.214 0.391 3.109 1.007 0.895 0.609 1.592 1.414 2.091 2.415 0.499 1.001 0.719 2.125 0.66 3.369zM140.22 17.543v0l3.028 0.143c-0.058 1.218 0.173 2.18 0.693 2.886 0.526 0.706 1.277 1.082 2.253 1.128v0l-0.124 2.634c-1.178-0.056-2.214-0.391-3.109-1.007-0.895-0.609-1.592-1.414-2.091-2.415-0.492-1.001-0.709-2.124-0.65-3.369zM149.576 17.985l3.038 0.144c-0.059 1.245-0.384 2.342-0.974 3.292-0.591 0.95-1.361 1.686-2.31 2.207-0.949 0.528-2.012 0.765-3.19 0.709v0l0.125-2.634c0.996 0.047 1.782-0.256 2.359-0.91 0.577-0.654 0.894-1.59 0.952-2.808z" fill="#3d3839" data-fill-palette-color="primary"></path><path d="M158.952 25.271l-2.984-0.532 2.956-16.583 2.985 0.532zM168.184 26.917l-2.985-0.532 2.015-11.301 2.984 0.532zM170.198 15.616l-2.984-0.532c0.163-0.915 0.012-1.715-0.455-2.4-0.467-0.679-1.149-1.098-2.044-1.258v0l1.231-2.531c1.001 0.179 1.858 0.591 2.571 1.239 0.706 0.646 1.213 1.448 1.521 2.406 0.302 0.957 0.355 1.983 0.16 3.076zM160.954 14.04l-1.313-0.234c0.199-1.114 0.609-2.074 1.232-2.88 0.616-0.807 1.364-1.392 2.243-1.755 0.879-0.363 1.823-0.455 2.83-0.276v0l-1.231 2.531c-0.942-0.168-1.76-0.009-2.456 0.476-0.702 0.484-1.137 1.197-1.305 2.138z" fill="#3d3839" data-fill-palette-color="primary"></path><path d="M180.881 26.475v0c0.172-0.532 0.125-1.032-0.141-1.501-0.271-0.477-0.662-0.954-1.173-1.43-0.509-0.483-1.05-0.98-1.621-1.491-0.571-0.51-1.095-1.058-1.571-1.644-0.476-0.586-0.809-1.242-0.999-1.969-0.181-0.731-0.132-1.529 0.148-2.394v0c0 0 0.09 0.029 0.269 0.087 0.179 0.058 0.413 0.134 0.702 0.226 0.282 0.091 0.561 0.181 0.836 0.271 0.276 0.089 0.51 0.165 0.702 0.227 0.192 0.062 0.288 0.093 0.289 0.093v0c-0.172 0.532-0.125 1.032 0.141 1.501 0.264 0.475 0.656 0.948 1.176 1.42 0.515 0.464 1.06 0.959 1.634 1.484 0.58 0.527 1.1 1.088 1.558 1.683 0.466 0.597 0.801 1.246 1.005 1.949 0.202 0.71 0.16 1.51-0.128 2.401v0c0 0-0.096-0.031-0.289-0.093-0.192-0.062-0.429-0.139-0.711-0.23-0.288-0.093-0.57-0.184-0.846-0.273-0.276-0.089-0.506-0.164-0.692-0.224-0.192-0.062-0.288-0.093-0.289-0.093zM176.691 30.206v0l0.811-2.509c0.788 0.255 1.499 0.269 2.132 0.041 0.633-0.227 1.049-0.649 1.247-1.263v0l2.827 0.913c-0.286 0.885-0.779 1.599-1.479 2.145-0.707 0.543-1.533 0.878-2.48 1.004-0.955 0.13-1.975 0.02-3.058-0.331zM178.322 16.95l-2.798-0.904c0.28-0.865 0.749-1.574 1.409-2.125 0.651-0.547 1.434-0.889 2.349-1.025 0.908-0.138 1.837-0.054 2.785 0.253v0l-0.811 2.509c-0.654-0.211-1.26-0.198-1.818 0.039-0.554 0.246-0.926 0.663-1.116 1.253zM172.548 23.642l2.837 0.323c-0.198 0.963-0.085 1.764 0.338 2.403 0.43 0.642 1.023 1.085 1.779 1.329v0l-0.811 2.509c-0.968-0.313-1.8-0.805-2.496-1.476-0.696-0.671-1.188-1.45-1.475-2.335-0.287-0.886-0.344-1.803-0.172-2.753zM186.22 19.716l-2.866-0.332c0.2-0.99 0.092-1.797-0.322-2.419-0.421-0.625-1.013-1.06-1.776-1.307v0l0.811-2.509c0.993 0.321 1.829 0.814 2.506 1.479 0.673 0.656 1.16 1.426 1.462 2.309 0.296 0.881 0.357 1.807 0.185 2.779z" fill="#3d3839" data-fill-palette-color="primary"></path><path d="M191.744 30.169l-2.755-1.263 7.694-16.77 2.738 1.3zM199.42 23.519l-8.33-3.821 1.041-2.269 8.33 3.821zM189.002 28.878v0l2.755 1.264c-0.267 0.582-0.41 1.112-0.43 1.592-0.026 0.477 0.065 0.893 0.272 1.248 0.202 0.352 0.517 0.626 0.946 0.823v0l-1.348 2.283c-1.414-0.649-2.319-1.609-2.714-2.879-0.395-1.271-0.222-2.714 0.519-4.331zM194.204 33.944v0l0.191 2.466c-0.545 0.121-1.092 0.151-1.642 0.092-0.553-0.054-1.072-0.192-1.556-0.414v0l1.348-2.283c0.263 0.121 0.529 0.187 0.798 0.199 0.275 0.015 0.562-0.005 0.861-0.06z" fill="#3d3839" data-fill-palette-color="primary"></path><path d="M199.662 40.117l-2.615-1.533 8.52-14.53 2.615 1.533zM205.366 30.389l-1.177-0.69c0.572-0.976 1.25-1.758 2.032-2.346 0.782-0.588 1.587-0.936 2.416-1.043 0.819-0.105 1.575 0.045 2.266 0.45v0l-1.658 2.308c-0.674-0.395-1.376-0.463-2.106-0.204-0.732 0.25-1.323 0.759-1.773 1.525zM212.754 29.076l-2.172 1.666c-0.12-0.328-0.301-0.645-0.543-0.951-0.245-0.315-0.509-0.556-0.794-0.723v0l1.658-2.308c0.442 0.259 0.827 0.594 1.155 1.006 0.323 0.408 0.555 0.845 0.696 1.31z" fill="#3d3839" data-fill-palette-color="primary"></path><path d="M224.255 36.764l2.429 1.83-10.137 13.452-2.429-1.83zM216.774 31.127l2.421 1.824-6.902 9.159-2.421-1.824zM209.872 40.286l2.421 1.824c-0.563 0.748-0.79 1.535-0.678 2.361 0.121 0.825 0.544 1.511 1.27 2.058v0l-2.243 1.701c-0.834-0.628-1.42-1.39-1.757-2.286-0.343-0.899-0.432-1.844-0.268-2.834 0.164-0.99 0.582-1.931 1.255-2.824zM217.408 45.85l1.065 0.803c-0.681 0.904-1.473 1.58-2.377 2.03-0.905 0.44-1.841 0.624-2.808 0.553-0.962-0.067-1.843-0.402-2.646-1.006v0l2.243-1.701c0.748 0.563 1.541 0.786 2.381 0.668 0.84-0.118 1.553-0.567 2.142-1.347z" fill="#3d3839" data-fill-palette-color="primary"></path><path d="M225.736 52.725l-2.148-2.139 3.507-3.523 2.148 2.139zM229.215 49.23l-2.148-2.138c0.879-0.883 1.854-1.481 2.925-1.793 1.081-0.312 2.147-0.343 3.201-0.093 1.053 0.25 1.997 0.791 2.833 1.623v0l-1.861 1.869c-0.692-0.689-1.469-0.992-2.331-0.909-0.867 0.078-1.74 0.559-2.619 1.441zM236.728 54.544l-2.411-1.602c0.632-0.787 0.902-1.555 0.81-2.302-0.087-0.743-0.415-1.397-0.983-1.963v0l1.86-1.869c0.74 0.737 1.261 1.555 1.563 2.455 0.302 0.89 0.387 1.797 0.256 2.721-0.136 0.92-0.501 1.773-1.095 2.56zM223.609 50.564v0l2.148 2.139c-0.865 0.869-1.337 1.739-1.416 2.611-0.089 0.872 0.213 1.652 0.905 2.341v0l-1.861 1.869c-0.835-0.832-1.38-1.774-1.635-2.826-0.25-1.057-0.224-2.124 0.079-3.201 0.307-1.072 0.901-2.05 1.78-2.933zM229.49 57.789v0l1.613 2.405c-0.77 0.583-1.617 0.947-2.541 1.091-0.929 0.14-1.841 0.063-2.737-0.23-0.901-0.298-1.721-0.816-2.461-1.552v0l1.861-1.869c0.568 0.566 1.228 0.886 1.981 0.96 0.758 0.079 1.519-0.189 2.284-0.805z" fill="#3d3839" data-fill-palette-color="primary"></path><path d="M236.623 66.082l-1.881-2.377 14.467-11.45 1.85 2.402zM246.481 63.64l-5.687-7.186 1.957-1.549 5.687 7.186zM234.766 63.686v0l1.881 2.377c-0.502 0.397-0.871 0.805-1.106 1.224-0.24 0.413-0.348 0.825-0.324 1.235 0.02 0.405 0.176 0.793 0.469 1.162v0l-2.237 1.423c-0.966-1.22-1.336-2.486-1.112-3.798 0.225-1.312 1.034-2.519 2.429-3.623zM237.102 70.561v0l-0.95 2.285c-0.54-0.14-1.042-0.361-1.505-0.664-0.469-0.299-0.868-0.657-1.198-1.075v0l2.237-1.423c0.18 0.227 0.387 0.407 0.621 0.54 0.238 0.138 0.503 0.25 0.795 0.337z" fill="#3d3839" data-fill-palette-color="primary"></path><path d="M239.519 78.906l-1.688-2.531 14.015-9.343 1.687 2.531zM254.539 67.046v0c-0.31-0.465-0.413-0.959-0.308-1.482 0.11-0.527 0.395-0.943 0.855-1.25v0c0.465-0.31 0.962-0.415 1.491-0.314 0.534 0.097 0.957 0.378 1.267 0.843v0c0.306 0.46 0.405 0.96 0.297 1.502-0.103 0.538-0.387 0.962-0.852 1.273v0c-0.46 0.306-0.957 0.404-1.494 0.291-0.531-0.116-0.949-0.404-1.256-0.863z" fill="#3d3839" data-fill-palette-color="primary"></path><path d="M252.66 90.793l-1.408-2.696 4.344-2.268 1.408 2.696zM248.32 82.481l-1.403-2.688 4.345-2.268 1.403 2.688zM257.579 81.329l-0.089-0.17 2.338-1.221 0.088 0.17zM244.089 88.371l-0.089-0.17 2.338-1.221 0.089 0.171zM252.638 80.227l-1.403-2.687c1.105-0.577 2.215-0.852 3.33-0.827 1.118 0.032 2.142 0.326 3.07 0.882 0.935 0.553 1.675 1.352 2.221 2.397v0l-2.338 1.22c-0.452-0.866-1.103-1.392-1.953-1.579-0.847-0.181-1.823 0.017-2.927 0.594zM256.977 88.539v0l-1.407-2.696c1.105-0.577 1.826-1.261 2.165-2.054 0.339-0.792 0.277-1.63-0.184-2.514v0l2.337-1.22c0.546 1.045 0.778 2.109 0.698 3.192-0.075 1.08-0.418 2.088-1.032 3.023-0.613 0.936-1.472 1.692-2.577 2.269zM246.944 79.779v0l1.403 2.688c-1.081 0.564-1.795 1.249-2.142 2.053-0.344 0.81-0.291 1.649 0.161 2.514v0l-2.338 1.221c-0.546-1.045-0.778-2.109-0.697-3.192 0.075-1.08 0.418-2.088 1.032-3.024 0.616-0.93 1.477-1.683 2.581-2.26zM251.279 88.083l1.408 2.696c-1.105 0.577-2.216 0.849-3.335 0.817-1.118-0.032-2.142-0.326-3.071-0.881-0.935-0.553-1.675-1.352-2.22-2.398v0l2.338-1.22c0.461 0.884 1.12 1.41 1.975 1.579 0.856 0.169 1.824-0.029 2.905-0.593z" fill="#3d3839" data-fill-palette-color="primary"></path><path d="M249.714 99.853l-1.045-2.846 15.811-5.806 1.045 2.845zM252.946 108.655l-1.045-2.846 10.775-3.957 1.045 2.846zM263.721 104.698l-1.045-2.846c0.873-0.32 1.487-0.855 1.844-1.603 0.35-0.746 0.369-1.546 0.055-2.399v0l2.807-0.212c0.351 0.955 0.426 1.903 0.227 2.844-0.202 0.935-0.639 1.777-1.311 2.527-0.674 0.743-1.533 1.306-2.577 1.689zM260.422 95.92l-0.46-1.252c1.062-0.39 2.098-0.519 3.109-0.388 1.008 0.125 1.89 0.476 2.646 1.052 0.757 0.576 1.312 1.345 1.665 2.306v0l-2.807 0.212c-0.33-0.898-0.879-1.525-1.648-1.881-0.772-0.362-1.607-0.379-2.505-0.049z" fill="#3d3839" data-fill-palette-color="primary"></path><path d="M12.659 189.811l-2.524-8.199 2.52-0.776 2.524 8.199zM10.429 182.568l-0.892-2.897 22.472-6.919 0.891 2.897z" fill="#3d3839" data-fill-palette-color="primary"></path><path d="M19.75 205.756l-1.252-2.772 10.459-4.728 1.253 2.772zM16.364 199.491v0l2.38-0.821c0.33 0.73 0.793 1.272 1.388 1.624 0.601 0.349 1.319 0.505 2.152 0.469 0.84-0.039 1.744-0.278 2.714-0.717v0l0.685 1.343c-1.375 0.621-2.692 0.947-3.95 0.976-1.256 0.035-2.353-0.193-3.293-0.686-0.946-0.489-1.638-1.219-2.076-2.188zM18.744 198.67l-2.38 0.821c-0.413-0.915-0.574-1.843-0.483-2.787 0.085-0.94 0.398-1.802 0.938-2.586 0.537-0.775 1.263-1.369 2.177-1.782v0l1.27 2.564c-0.773 0.35-1.294 0.899-1.561 1.648-0.276 0.746-0.263 1.453 0.039 2.122zM20.266 194.9l-1.27-2.564c0.951-0.43 1.893-0.571 2.825-0.423 0.935 0.154 1.8 0.539 2.596 1.155 0.79 0.619 1.418 1.444 1.884 2.475v0l-2.057 1.118c-0.386-0.853-0.953-1.447-1.702-1.781-0.75-0.334-1.508-0.327-2.276 0.02zM26.292 201.191l-2.048-4.53 2.057-1.118 2.118 4.687zM25.683 201.389l-0.685-1.343 3.923-1.773 0.62 1.372zM30.146 201.057v0l-1.253-2.771c0.89-0.402 1.5-0.999 1.829-1.792 0.321-0.795 0.289-1.617-0.093-2.464v0l2.375-1.073c0.494 1.093 0.698 2.165 0.612 3.216-0.086 1.052-0.429 2.012-1.027 2.881-0.598 0.869-1.412 1.537-2.443 2.003zM26.664 192.374v0l-0.637-2.784c0.964-0.288 1.893-0.334 2.787-0.139 0.894 0.195 1.71 0.595 2.449 1.199 0.739 0.605 1.324 1.383 1.754 2.334v0l-2.376 1.074c-0.338-0.749-0.848-1.295-1.527-1.638-0.677-0.337-1.494-0.352-2.45-0.046z" fill="#3d3839" data-fill-palette-color="primary"></path><path d="M30.788 215.606v0c0.475-0.296 0.761-0.708 0.86-1.238 0.101-0.539 0.11-1.155 0.026-1.85-0.077-0.698-0.17-1.426-0.277-2.184-0.107-0.758-0.154-1.515-0.14-2.27 0.014-0.755 0.183-1.471 0.507-2.149 0.333-0.676 0.886-1.254 1.657-1.734v0c0 0 0.05 0.08 0.15 0.24 0.1 0.16 0.23 0.369 0.39 0.626 0.157 0.252 0.312 0.5 0.465 0.746 0.153 0.246 0.283 0.455 0.39 0.626 0.107 0.172 0.16 0.257 0.16 0.257v0c-0.475 0.296-0.761 0.708-0.86 1.238-0.104 0.533-0.11 1.148-0.018 1.845 0.095 0.687 0.192 1.416 0.291 2.187 0.103 0.777 0.138 1.541 0.106 2.291-0.029 0.756-0.192 1.469-0.49 2.138-0.303 0.673-0.852 1.257-1.646 1.752v0c0 0-0.053-0.086-0.161-0.257-0.107-0.172-0.239-0.383-0.395-0.635-0.16-0.257-0.317-0.509-0.47-0.755-0.153-0.246-0.281-0.452-0.385-0.617-0.107-0.172-0.16-0.257-0.16-0.257zM25.179 215.754v0l2.238-1.394c0.438 0.703 0.972 1.172 1.602 1.407 0.63 0.234 1.22 0.181 1.769-0.161v0l1.571 2.521c-0.789 0.491-1.627 0.72-2.514 0.685-0.89-0.041-1.738-0.318-2.543-0.833-0.814-0.517-1.522-1.258-2.123-2.225zM34.976 206.676l-1.555-2.495c0.772-0.481 1.588-0.719 2.448-0.715 0.85 0.002 1.669 0.246 2.456 0.732 0.783 0.48 1.438 1.144 1.965 1.99v0l-2.238 1.394c-0.363-0.583-0.835-0.964-1.415-1.143-0.582-0.169-1.136-0.09-1.661 0.237zM26.247 208.066l1.96 2.076c-0.772 0.608-1.203 1.293-1.292 2.055-0.085 0.767 0.082 1.489 0.502 2.163v0l-2.238 1.394c-0.538-0.863-0.856-1.776-0.956-2.738-0.099-0.962 0.027-1.874 0.379-2.736 0.352-0.862 0.9-1.6 1.645-2.214zM39.227 213.885l-1.976-2.103c0.791-0.628 1.229-1.313 1.315-2.056 0.081-0.749-0.09-1.464-0.514-2.144v0l2.238-1.394c0.552 0.886 0.872 1.802 0.961 2.746 0.091 0.936-0.034 1.838-0.373 2.708-0.343 0.864-0.893 1.612-1.651 2.243z" fill="#3d3839" data-fill-palette-color="primary"></path><path d="M51.297 231.275l-4.545-4.976 1.992-1.819 4.545 4.976zM37.604 231.671l17.361-15.857 2.044 2.238-17.361 15.857zM54.395 219.085l1.94-1.771 5.785 6.334-1.94 1.771z" fill="#3d3839" data-fill-palette-color="primary"></path><path d="M51.011 245.215l-2.242-2.055 16.235-17.701 2.241 2.056z" fill="#3d3839" data-fill-palette-color="primary"></path><path d="M69.277 251.494l-2.455-1.795 2.893-3.956 2.455 1.795zM61.708 245.959l-2.446-1.789 2.892-3.956 2.447 1.789zM69.502 240.831l-0.155-0.114 1.557-2.128 0.155 0.113zM60.52 253.114l-0.155-0.114 1.556-2.128 0.155 0.113zM64.583 242.028l-2.447-1.789c0.736-1.006 1.609-1.744 2.621-2.215 1.017-0.466 2.065-0.655 3.144-0.567 1.083 0.083 2.1 0.472 3.052 1.167v0l-1.557 2.129c-0.788-0.577-1.605-0.761-2.45-0.552-0.84 0.212-1.627 0.821-2.363 1.827zM72.152 247.563v0l-2.455-1.795c0.736-1.006 1.08-1.939 1.033-2.8-0.047-0.86-0.473-1.585-1.277-2.173v0l1.557-2.129c0.952 0.696 1.631 1.547 2.038 2.554 0.411 1.001 0.548 2.057 0.412 3.168-0.136 1.111-0.572 2.169-1.308 3.175zM59.279 244.145v0l2.447 1.79c-0.72 0.984-1.057 1.914-1.013 2.789 0.05 0.879 0.469 1.607 1.257 2.183v0l-1.556 2.129c-0.952-0.696-1.631-1.547-2.038-2.554-0.411-1.001-0.548-2.057-0.412-3.168 0.142-1.107 0.58-2.163 1.315-3.169zM66.84 249.674l2.455 1.796c-0.736 1.006-1.612 1.742-2.629 2.208-1.017 0.466-2.065 0.655-3.144 0.567-1.083-0.083-2.1-0.472-3.051-1.167v0l1.556-2.129c0.805 0.588 1.628 0.769 2.47 0.542 0.842-0.227 1.623-0.833 2.343-1.817z" fill="#3d3839" data-fill-palette-color="primary"></path><path d="M73.317 260.75l-2.635-1.498 8.323-14.644 2.636 1.498zM78.889 250.947l-1.185-0.674c0.559-0.984 1.226-1.775 1.999-2.374 0.774-0.598 1.574-0.957 2.402-1.076 0.818-0.116 1.575 0.024 2.272 0.42v0l-1.627 2.33c-0.679-0.386-1.382-0.445-2.108-0.176-0.729 0.26-1.313 0.776-1.752 1.55zM86.259 249.534l-2.149 1.695c-0.124-0.326-0.31-0.641-0.556-0.944-0.249-0.312-0.517-0.549-0.804-0.712v0l1.627-2.33c0.445 0.253 0.835 0.583 1.169 0.99 0.328 0.404 0.566 0.837 0.713 1.301z" fill="#3d3839" data-fill-palette-color="primary"></path><path d="M95.508 262.882l-10.439-4.525 0.86-1.984 10.439 4.526zM86.765 267.858l-0.148-0.064 1.049-2.419 0.148 0.064zM86.359 260.59l-2.781-1.206 1.949-4.496 2.781 1.206zM96.368 260.899l-2.781-1.206 0.691-1.595 2.781 1.206zM97.059 259.304v0l-2.781-1.206c0.389-0.896 0.435-1.75 0.141-2.56-0.291-0.802-0.866-1.389-1.726-1.761v0l1.037-2.392c1.1 0.477 1.972 1.134 2.615 1.971 0.643 0.837 1.035 1.778 1.177 2.823 0.142 1.045-0.013 2.087-0.463 3.125zM91.851 264.028v0l2.37 1.645c-0.498 0.827-1.153 1.475-1.966 1.944-0.807 0.472-1.684 0.735-2.632 0.787-0.941 0.054-1.894-0.127-2.858-0.546v0l1.049-2.419c0.735 0.319 1.47 0.377 2.204 0.174 0.728-0.206 1.339-0.734 1.833-1.585zM88.296 256.122l-2.781-1.206c0.504-1.162 1.196-2.081 2.076-2.756 0.884-0.667 1.862-1.076 2.933-1.229 1.074-0.158 2.152-0.003 3.234 0.466v0l-1.037 2.392c-0.896-0.389-1.736-0.382-2.519 0.02-0.775 0.398-1.41 1.169-1.906 2.313zM83.578 259.384v0l2.781 1.206c-0.488 1.125-0.612 2.106-0.373 2.944 0.242 0.847 0.812 1.464 1.707 1.853v0l-1.049 2.419c-1.082-0.469-1.933-1.146-2.554-2.032-0.619-0.892-0.985-1.895-1.097-3.009-0.106-1.111 0.089-2.237 0.585-3.381z" fill="#3d3839" data-fill-palette-color="primary"></path><path d="M106.952 269.614v0c0.156-0.537 0.093-1.035-0.187-1.496-0.285-0.468-0.69-0.933-1.216-1.394-0.524-0.467-1.079-0.948-1.665-1.44-0.587-0.493-1.127-1.025-1.621-1.596-0.494-0.571-0.846-1.217-1.058-1.938-0.203-0.725-0.179-1.525 0.075-2.398v0c0 0 0.091 0.026 0.271 0.079 0.181 0.053 0.417 0.121 0.709 0.206 0.285 0.083 0.566 0.164 0.844 0.244 0.278 0.081 0.514 0.149 0.708 0.206 0.194 0.056 0.291 0.084 0.292 0.084v0c-0.156 0.537-0.093 1.035 0.187 1.496 0.279 0.467 0.685 0.928 1.218 1.384 0.529 0.448 1.089 0.926 1.678 1.434 0.596 0.509 1.132 1.054 1.609 1.634 0.483 0.582 0.838 1.221 1.064 1.918 0.224 0.703 0.205 1.504-0.055 2.404v0c0 0-0.097-0.028-0.291-0.084-0.194-0.056-0.433-0.126-0.718-0.209-0.291-0.084-0.576-0.167-0.854-0.247-0.278-0.081-0.511-0.148-0.699-0.203-0.194-0.056-0.291-0.084-0.291-0.084zM102.877 273.471v0l0.734-2.533c0.796 0.231 1.506 0.223 2.132-0.023 0.626-0.246 1.028-0.68 1.209-1.301v0l2.853 0.827c-0.259 0.893-0.73 1.622-1.413 2.189-0.69 0.564-1.506 0.924-2.449 1.078-0.951 0.159-1.973 0.08-3.066-0.237zM104.104 260.171l-2.824-0.819c0.253-0.873 0.701-1.596 1.343-2.166 0.634-0.567 1.406-0.932 2.317-1.096 0.904-0.166 1.834-0.11 2.792 0.168v0l-0.735 2.533c-0.66-0.191-1.265-0.16-1.815 0.094-0.546 0.262-0.905 0.691-1.078 1.286zM98.536 267.036l2.846 0.236c-0.169 0.968-0.032 1.765 0.411 2.392 0.449 0.628 1.055 1.053 1.818 1.274v0l-0.734 2.533c-0.977-0.283-1.824-0.75-2.54-1.399-0.716-0.65-1.232-1.413-1.546-2.289-0.314-0.877-0.399-1.792-0.255-2.747zM112.083 262.696l-2.875-0.245c0.17-0.996 0.038-1.799-0.396-2.408-0.44-0.612-1.045-1.029-1.815-1.252v0l0.735-2.533c1.003 0.291 1.853 0.758 2.55 1.402 0.692 0.636 1.203 1.39 1.531 2.264 0.322 0.872 0.412 1.796 0.27 2.772z" fill="#3d3839" data-fill-palette-color="primary"></path><path d="M126.04 271.552l-3.02-0.267 1.067-12.058 3.019 0.267zM127.106 259.494l-3.019-0.267c0.107-1.215 0.481-2.27 1.122-3.167 0.633-0.891 1.473-1.554 2.519-1.988 1.039-0.429 2.202-0.586 3.49-0.473v0l-0.232 2.627c-1.107-0.098-2.003 0.134-2.689 0.696-0.692 0.561-1.089 1.418-1.191 2.572zM123.023 271.255v0l3.019 0.267c-0.102 1.154 0.138 2.075 0.72 2.762 0.575 0.687 1.416 1.079 2.523 1.176v0l-0.232 2.627c-1.288-0.114-2.406-0.48-3.352-1.097-0.952-0.625-1.663-1.425-2.131-2.4-0.474-0.982-0.657-2.094-0.547-3.335zM137.356 260.705l-2.808 0.32c-0.011-1.408-0.33-2.535-0.959-3.382-0.628-0.847-1.51-1.32-2.643-1.42v0l0.232-2.627c1.886 0.167 3.371 0.876 4.458 2.129 1.079 1.259 1.652 2.919 1.72 4.98zM133.634 271.362v0l2.712 0.767c-0.43 2.038-1.287 3.582-2.571 4.631-1.29 1.049-2.877 1.49-4.763 1.324v0l0.233-2.627c1.134 0.1 2.085-0.211 2.852-0.935 0.767-0.723 1.28-1.777 1.537-3.16z" fill="#3d3839" data-fill-palette-color="primary"></path><path d="M152.844 271.497l-3.038 0.144-0.231-4.895 3.038-0.144zM143.478 271.94l-3.028 0.143-0.231-4.895 3.028-0.143zM146.326 263.055l-0.192 0.009-0.125-2.634 0.192-0.009zM147.044 278.255l-0.192 0.01-0.124-2.635 0.191-0.009zM143.248 267.075l-3.028 0.143c-0.059-1.245 0.158-2.368 0.65-3.369 0.499-1.001 1.196-1.807 2.091-2.415 0.895-0.616 1.931-0.951 3.109-1.007v0l0.124 2.635c-0.976 0.046-1.727 0.415-2.254 1.108-0.52 0.692-0.751 1.661-0.692 2.905zM152.615 266.632v0l-3.038 0.144c-0.059-1.245-0.376-2.187-0.953-2.828-0.577-0.64-1.363-0.937-2.359-0.89v0l-0.124-2.634c1.178-0.056 2.241 0.181 3.189 0.709 0.949 0.522 1.718 1.257 2.31 2.207 0.591 0.95 0.916 2.047 0.975 3.292zM140.449 272.053v0l3.028-0.143c0.058 1.218 0.378 2.154 0.962 2.807 0.591 0.653 1.374 0.957 2.349 0.91v0l0.125 2.635c-1.178 0.056-2.241-0.181-3.19-0.709-0.949-0.522-1.718-1.257-2.309-2.208-0.584-0.95-0.906-2.048-0.965-3.292zM149.805 271.611l3.038-0.144c0.059 1.245-0.161 2.368-0.66 3.369-0.499 1.001-1.196 1.807-2.091 2.416-0.895 0.616-1.931 0.951-3.109 1.006v0l-0.124-2.634c0.996-0.047 1.75-0.423 2.263-1.129 0.513-0.705 0.741-1.667 0.683-2.884z" fill="#3d3839" data-fill-palette-color="primary"></path><path d="M161.909 276.073l-2.984 0.532-2.957-16.583 2.985-0.532zM171.14 274.427l-2.984 0.532-2.015-11.3 2.984-0.532zM169.125 263.127l-2.984 0.532c-0.163-0.915-0.582-1.614-1.256-2.096-0.673-0.475-1.457-0.633-2.353-0.473v0l0.281-2.801c1.001-0.179 1.948-0.087 2.84 0.274 0.886 0.362 1.639 0.94 2.259 1.732 0.614 0.794 1.018 1.738 1.213 2.832zM159.907 264.842l-1.313 0.234c-0.199-1.114-0.145-2.157 0.16-3.128 0.299-0.97 0.798-1.778 1.498-2.422 0.699-0.645 1.553-1.057 2.561-1.237v0l-0.281 2.801c-0.942 0.168-1.655 0.6-2.14 1.295-0.492 0.697-0.653 1.516-0.485 2.457z" fill="#3d3839" data-fill-palette-color="primary"></path><path d="M183.396 266.065v0c-0.172-0.532-0.503-0.91-0.993-1.134-0.499-0.228-1.095-0.386-1.788-0.473-0.696-0.094-1.425-0.18-2.187-0.26-0.762-0.079-1.507-0.217-2.236-0.413-0.729-0.196-1.383-0.533-1.962-1.012-0.575-0.487-1.002-1.163-1.282-2.028v0c0 0 0.09-0.029 0.269-0.087 0.179-0.058 0.413-0.134 0.702-0.227 0.282-0.091 0.561-0.181 0.836-0.27 0.276-0.089 0.51-0.165 0.702-0.227 0.192-0.062 0.288-0.093 0.288-0.093v0c0.172 0.532 0.503 0.91 0.993 1.134 0.492 0.23 1.087 0.385 1.786 0.463 0.69 0.074 1.421 0.157 2.193 0.247 0.779 0.088 1.528 0.239 2.248 0.452 0.727 0.211 1.379 0.542 1.956 0.992 0.58 0.457 1.013 1.131 1.302 2.022v0c0 0-0.096 0.031-0.289 0.093-0.192 0.062-0.429 0.139-0.711 0.23-0.288 0.093-0.57 0.184-0.846 0.274-0.276 0.089-0.506 0.164-0.692 0.223-0.192 0.062-0.288 0.093-0.289 0.094zM182.183 271.543v0l-0.811-2.509c0.788-0.255 1.373-0.66 1.753-1.214 0.38-0.555 0.47-1.14 0.271-1.755v0l2.827-0.914c0.286 0.885 0.305 1.753 0.056 2.605-0.255 0.854-0.729 1.609-1.423 2.265-0.698 0.665-1.589 1.172-2.673 1.522zM175.745 259.841l-2.797 0.904c-0.28-0.865-0.314-1.715-0.102-2.547 0.208-0.825 0.643-1.56 1.305-2.206 0.656-0.644 1.458-1.119 2.406-1.426v0l0.811 2.51c-0.654 0.211-1.137 0.577-1.451 1.095-0.305 0.523-0.362 1.08-0.172 1.67zM174.982 268.647l2.489-1.4c0.403 0.896 0.963 1.48 1.681 1.751 0.724 0.269 1.464 0.281 2.22 0.036v0l0.811 2.509c-0.968 0.313-1.93 0.401-2.888 0.265-0.957-0.137-1.812-0.48-2.563-1.03-0.751-0.55-1.335-1.26-1.75-2.131zM183.768 257.46l-2.518 1.408c-0.418-0.92-0.977-1.511-1.677-1.772-0.707-0.26-1.442-0.267-2.205-0.02v0l-0.811-2.51c0.993-0.321 1.959-0.41 2.897-0.267 0.93 0.138 1.775 0.477 2.538 1.016 0.756 0.542 1.348 1.256 1.776 2.145z" fill="#3d3839" data-fill-palette-color="primary"></path><path d="M194.513 260.625l-2.755 1.264-7.693-16.769 2.772-1.228zM194.479 250.469l-8.33 3.822-1.041-2.269 8.33-3.821zM191.745 261.862v0l2.756-1.264c0.267 0.582 0.576 1.037 0.926 1.365 0.345 0.331 0.719 0.534 1.123 0.607 0.398 0.077 0.812 0.017 1.241-0.18v0l0.851 2.511c-1.414 0.649-2.732 0.709-3.953 0.179-1.221-0.529-2.202-1.602-2.944-3.218zM198.978 261.223v0l1.995 1.464c-0.264 0.492-0.598 0.926-1.003 1.305-0.402 0.384-0.844 0.688-1.328 0.909v0l-0.851-2.511c0.263-0.121 0.487-0.279 0.671-0.475 0.191-0.199 0.363-0.429 0.516-0.692z" fill="#3d3839" data-fill-palette-color="primary"></path><path d="M208.183 259.174l-2.615 1.534-8.52-14.531 2.615-1.533zM202.479 249.447l-1.177 0.69c-0.572-0.976-0.924-1.949-1.055-2.919-0.131-0.969-0.042-1.842 0.269-2.617 0.308-0.766 0.808-1.352 1.5-1.758v0l1.204 2.574c-0.674 0.395-1.076 0.975-1.206 1.738-0.139 0.761 0.016 1.525 0.465 2.292zM204.94 242.358l0.394 2.709c-0.345-0.055-0.71-0.052-1.095 0.01-0.395 0.06-0.734 0.173-1.019 0.34v0l-1.204-2.574c0.442-0.259 0.922-0.431 1.441-0.517 0.514-0.083 1.008-0.072 1.483 0.032z" fill="#3d3839" data-fill-palette-color="primary"></path><path d="M214.119 234.545l2.429-1.83 10.136 13.452-2.429 1.83zM206.638 240.182l2.421-1.824 6.902 9.159-2.421 1.824zM213.54 249.341l2.421-1.824c0.563 0.748 1.258 1.182 2.082 1.302 0.826 0.111 1.602-0.107 2.329-0.653v0l1.016 2.624c-0.834 0.628-1.728 0.981-2.681 1.059-0.959 0.082-1.892-0.093-2.798-0.523-0.906-0.43-1.696-1.092-2.369-1.985zM220.966 243.631l1.065-0.802c0.681 0.904 1.113 1.852 1.296 2.844 0.173 0.991 0.093 1.942-0.243 2.852-0.329 0.906-0.895 1.661-1.696 2.265v0l-1.016-2.624c0.748-0.563 1.181-1.265 1.298-2.105 0.118-0.84-0.117-1.649-0.704-2.43z" fill="#3d3839" data-fill-palette-color="primary"></path><path d="M229.237 235.552l-2.148 2.139-3.507-3.523 2.148-2.139zM225.758 232.058l-2.148 2.139c-0.879-0.883-1.473-1.861-1.78-2.934-0.307-1.082-0.334-2.149-0.079-3.201 0.255-1.052 0.8-1.994 1.635-2.825v0l1.861 1.868c-0.692 0.689-0.999 1.465-0.919 2.328 0.074 0.867 0.551 1.742 1.43 2.625zM231.104 224.567l-1.613 2.405c-0.785-0.635-1.551-0.908-2.298-0.82-0.743 0.084-1.399 0.409-1.967 0.975v0l-1.861-1.869c0.74-0.737 1.56-1.254 2.461-1.552 0.891-0.298 1.799-0.38 2.723-0.245 0.919 0.14 1.771 0.509 2.555 1.106zM227.068 237.669v0l2.148-2.139c0.865 0.869 1.733 1.345 2.605 1.428 0.871 0.092 1.653-0.206 2.345-0.895v0l1.861 1.868c-0.835 0.832-1.78 1.373-2.833 1.623-1.058 0.245-2.125 0.215-3.201-0.092-1.071-0.312-2.046-0.909-2.925-1.793zM234.318 231.819v0l2.411-1.602c0.579 0.773 0.94 1.621 1.081 2.545 0.136 0.929 0.056 1.841-0.242 2.736-0.302 0.9-0.823 1.718-1.563 2.455v0l-1.86-1.869c0.568-0.566 0.891-1.225 0.968-1.977 0.083-0.757-0.183-1.52-0.795-2.288z" fill="#3d3839" data-fill-palette-color="primary"></path><path d="M241.83 222.799l-1.881 2.377-14.468-11.451 1.913-2.352zM237.189 213.765l-5.688 7.186-1.957-1.549 5.688-7.186zM239.925 225.157v0l1.881-2.377c0.502 0.397 0.983 0.662 1.445 0.796 0.457 0.139 0.883 0.149 1.277 0.031 0.39-0.113 0.731-0.354 1.023-0.724v0l1.899 1.851c-0.966 1.22-2.113 1.872-3.441 1.954-1.328 0.083-2.69-0.428-4.084-1.531zM246.08 221.304v0l2.441 0.399c-0.012 0.558-0.112 1.097-0.301 1.618-0.183 0.525-0.44 0.996-0.77 1.413v0l-1.899-1.851c0.18-0.227 0.307-0.47 0.383-0.728 0.08-0.263 0.128-0.547 0.146-0.851z" fill="#3d3839" data-fill-palette-color="primary"></path><path d="M253.535 215.198l-1.687 2.531-14.015-9.344 1.687-2.53zM236.81 205.894v0c-0.31 0.465-0.727 0.75-1.25 0.855-0.529 0.101-1.023-0.002-1.483-0.309v0c-0.465-0.31-0.753-0.729-0.863-1.255-0.116-0.531-0.019-1.028 0.292-1.494v0c0.306-0.46 0.731-0.744 1.272-0.852 0.536-0.112 1.037-0.013 1.502 0.297v0c0.46 0.306 0.741 0.729 0.844 1.267 0.097 0.534-0.007 1.031-0.314 1.491z" fill="#3d3839" data-fill-palette-color="primary"></path><path d="M257.005 196.236l-1.407 2.696-4.345-2.268 1.408-2.696zM252.666 204.548l-1.403 2.687-4.344-2.268 1.403-2.687zM246.428 197.61l-0.089 0.17-2.337-1.22 0.088-0.171zM259.918 204.652l-0.089 0.17-2.338-1.22 0.089-0.17zM248.348 202.294l-1.402 2.687c-1.105-0.577-1.965-1.33-2.582-2.26-0.613-0.936-0.957-1.944-1.032-3.023-0.08-1.083 0.152-2.147 0.698-3.192v0l2.337 1.22c-0.452 0.866-0.512 1.701-0.179 2.505 0.336 0.798 1.056 1.486 2.16 2.063zM252.688 193.982v0l-1.408 2.696c-1.105-0.577-2.079-0.778-2.922-0.603-0.844 0.175-1.496 0.704-1.958 1.589v0l-2.338-1.221c0.546-1.045 1.286-1.844 2.221-2.397 0.929-0.556 1.952-0.85 3.07-0.882 1.118-0.032 2.23 0.241 3.335 0.818zM251.236 207.221v0l1.403-2.687c1.081 0.564 2.051 0.759 2.909 0.584 0.862-0.181 1.519-0.704 1.971-1.57v0l2.338 1.221c-0.546 1.045-1.286 1.844-2.22 2.397-0.929 0.556-1.952 0.85-3.071 0.882-1.115 0.026-2.225-0.25-3.33-0.827zM255.571 198.918l1.407-2.696c1.105 0.577 1.964 1.333 2.577 2.268 0.613 0.936 0.957 1.944 1.032 3.024 0.08 1.083-0.152 2.147-0.697 3.192v0l-2.338-1.221c0.461-0.884 0.517-1.725 0.166-2.523-0.351-0.799-1.066-1.48-2.147-2.044z" fill="#3d3839" data-fill-palette-color="primary"></path><path d="M265.526 190.714l-1.045 2.846-15.811-5.807 1.045-2.845zM268.759 181.912l-1.045 2.846-10.775-3.957 1.045-2.846zM257.984 177.955l-1.045 2.846c-0.873-0.32-1.687-0.311-2.443 0.028-0.75 0.342-1.281 0.939-1.595 1.793v0l-2.277-1.654c0.351-0.955 0.907-1.727 1.668-2.315 0.759-0.582 1.637-0.942 2.635-1.078 0.995-0.13 2.014-0.003 3.057 0.38zM254.818 186.782l-0.46 1.252c-1.062-0.39-1.936-0.962-2.621-1.716-0.687-0.747-1.133-1.586-1.337-2.515-0.204-0.929-0.13-1.874 0.224-2.835v0l2.277 1.654c-0.33 0.898-0.317 1.732 0.039 2.501 0.354 0.776 0.98 1.329 1.878 1.659z" fill="#3d3839" data-fill-palette-color="primary"></path><path d="M3.671 142.38c0-5.074 4.113-9.188 9.188-9.188 5.074 0 9.188 4.113 9.187 9.188 0 5.074-4.113 9.188-9.187 9.188-5.074 0-9.188-4.113-9.188-9.188z" fill="#3d3839" data-fill-palette-color="primary"></path><path d="M256.73 142.38c0-5.074 4.113-9.188 9.187-9.188 5.074 0 9.188 4.113 9.188 9.188 0 5.074-4.113 9.188-9.188 9.188-5.074 0-9.188-4.113-9.187-9.188z" fill="#3d3839" data-fill-palette-color="primary"></path></g><g id="text-1"></g></svg></g><g transform="matrix(1,0,0,1,53.1494936,292.9800648127423)"><svg viewBox="0 0 171.97061280000003 8.936675103370787" height="8.936675103370787" width="171.97061280000003"><g transform="matrix(1,0,0,1,0,0)"><svg width="171.97061280000003" viewBox="4.2 -38.1 889.9 46.25" height="8.936675103370787" data-palette-color="#ffc604"><path d="M10.6 0L4.2 0 4.2-34.85 22.4-34.85 22.4-29.35 10.6-29.35 10.6-20.2 20.9-20.2 20.9-14.6 10.6-14.6 10.6 0ZM32.9 0L26.65 0 26.65-24.9 32.3-24.9 32.6-20.5Q33-21.48 33.84-22.58 34.67-23.68 36.16-24.44 37.65-25.2 40-25.2L40-25.2Q40.72-25.2 41.27-25.1 41.82-25 42.3-24.8L42.3-24.8 40.9-18.25Q40.1-19.05 38.45-19.05L38.45-19.05Q36.52-19.05 35.3-18.26 34.07-17.48 33.48-16.5 32.9-15.53 32.9-15L32.9-15 32.9 0ZM55.4 0.5L55.4 0.5Q49.9 0.5 46.9-2.95 43.9-6.4 43.9-12.5L43.9-12.5Q43.9-18.65 47-22.08 50.09-25.5 55.59-25.5L55.59-25.5Q61.12-25.5 64.01-21.96 66.9-18.43 66.9-12.5L66.9-12.5Q66.9-6.58 63.91-3.04 60.92 0.5 55.4 0.5ZM55.5-4.5L55.5-4.5Q60.25-4.5 60.25-12.5L60.25-12.5Q60.25-20.55 55.5-20.55L55.5-20.55Q53.15-20.55 51.84-18.69 50.55-16.82 50.55-12.5L50.55-12.5Q50.55-8.2 51.84-6.35 53.15-4.5 55.5-4.5ZM79.09 0L72.69 0 72.69-24.9 78.44-24.9 78.59-21.6Q79.57-23.1 81.31-24.3 83.04-25.5 85.94-25.5L85.94-25.5Q88.47-25.5 90.14-24.38 91.82-23.25 92.67-21.2L92.67-21.2Q93.62-22.78 95.41-24.14 97.19-25.5 100.39-25.5L100.39-25.5Q104.14-25.5 105.99-23.1 107.84-20.7 107.84-16.45L107.84-16.45 107.84 0 101.49 0 101.49-15.8Q101.49-17.88 100.69-19.16 99.89-20.45 98.09-20.45L98.09-20.45Q96.34-20.45 94.92-19.16 93.49-17.88 93.49-15.8L93.49-15.8 93.49 0 87.09 0 87.09-15.8Q87.09-17.88 86.18-19.21 85.27-20.55 83.49-20.55L83.49-20.55Q81.69-20.55 80.39-19.21 79.09-17.88 79.09-15.8L79.09-15.8 79.09 0ZM131.44 0L125.04 0 125.04-34.85 143.24-34.85 143.24-29.35 131.44-29.35 131.44-20.2 141.74-20.2 141.74-14.6 131.44-14.6 131.44 0ZM157.64 0.5L157.64 0.5Q152.14 0.5 149.14-2.95 146.14-6.4 146.14-12.5L146.14-12.5Q146.14-18.65 149.24-22.08 152.34-25.5 157.84-25.5L157.84-25.5Q163.36-25.5 166.25-21.96 169.14-18.43 169.14-12.5L169.14-12.5Q169.14-6.58 166.15-3.04 163.16 0.5 157.64 0.5ZM157.74-4.5L157.74-4.5Q162.49-4.5 162.49-12.5L162.49-12.5Q162.49-20.55 157.74-20.55L157.74-20.55Q155.39-20.55 154.09-18.69 152.79-16.82 152.79-12.5L152.79-12.5Q152.79-8.2 154.09-6.35 155.39-4.5 157.74-4.5ZM182.08 0.6L182.08 0.6Q178.31 0.6 176.52-1.81 174.73-4.23 174.73-8.45L174.73-8.45 174.73-24.9 180.98-24.9 180.98-9Q180.98-6.95 181.73-5.65 182.48-4.35 184.28-4.35L184.28-4.35Q186.06-4.35 187.25-5.65 188.43-6.95 188.43-9L188.43-9 188.43-24.9 194.68-24.9 194.68 0 189.03 0 188.91-3.23Q187.98-1.75 186.4-0.58 184.81 0.6 182.08 0.6ZM208.48 0L202.08 0 202.08-24.9 207.88-24.9 208.01-21.63Q208.98-23.13 210.73-24.31 212.48-25.5 215.33-25.5L215.33-25.5Q219.13-25.5 220.98-23.1 222.83-20.7 222.83-16.45L222.83-16.45 222.83 0 216.43 0 216.43-15.9Q216.43-17.98 215.56-19.26 214.68-20.55 212.88-20.55L212.88-20.55Q211.13-20.55 209.81-19.26 208.48-17.98 208.48-15.9L208.48-15.9 208.48 0ZM238.38 0.7L238.38 0.7Q235.35 0.7 233.13-0.93 230.9-2.55 229.69-5.5 228.48-8.45 228.48-12.4L228.48-12.4Q228.48-18.55 230.99-22.03 233.5-25.5 238.48-25.5L238.48-25.5Q241.03-25.5 242.79-24.24 244.55-22.98 245.08-20.6L245.08-20.6 244.63-24.25 244.63-38 250.53-38 250.53 0 245.08 0 245.08-5.1Q244.4-2.53 242.7-0.91 241 0.7 238.38 0.7ZM239.83-4.25L239.83-4.25Q241.63-4.25 243.05-6.14 244.48-8.03 244.48-12.3L244.48-12.3Q244.48-16.2 243.38-18.32 242.28-20.45 239.98-20.45L239.98-20.45Q238.8-20.45 237.64-19.73 236.48-19 235.7-17.24 234.93-15.48 234.93-12.4L234.93-12.4Q234.93-8.28 236.35-6.26 237.78-4.25 239.83-4.25ZM262.38 0.7L262.38 0.7Q260.08 0.7 258.56-0.33 257.05-1.35 256.31-3.05 255.58-4.75 255.58-6.8L255.58-6.8Q255.58-7.95 256.16-9.33 256.75-10.7 258.25-11.95 259.75-13.2 262.48-14 265.2-14.8 269.48-14.8L269.48-14.8 269.48-15.95Q269.48-17.8 268.59-19.03 267.7-20.25 265.03-20.25L265.03-20.25Q263.08-20.25 261.21-19.59 259.35-18.93 258.48-17.95L258.48-17.95 256.48-22.75Q257.98-23.78 260.49-24.64 263-25.5 266.08-25.5L266.08-25.5Q269.78-25.5 271.83-24.38 273.88-23.25 274.7-21.19 275.53-19.13 275.53-16.35L275.53-16.35 275.53 0 270.18 0 269.73-3.55Q267.13 0.7 262.38 0.7ZM265.03-4.1L265.03-4.1Q266.15-4.1 267.44-5.01 268.73-5.93 269.48-7.35L269.48-7.35 269.48-10.9Q269.23-10.95 268.94-10.95 268.65-10.95 268.28-10.95L268.28-10.95Q266.9-10.95 265.39-10.64 263.88-10.33 262.83-9.55 261.78-8.78 261.78-7.4L261.78-7.4Q261.78-5.6 262.58-4.85 263.38-4.1 265.03-4.1ZM290.42 0.75L290.42 0.75Q286.2 0.75 284.71-1.45 283.22-3.65 283.22-8.1L283.22-8.1 283.22-19.65 279.97-19.65 279.97-24.9 283.47-24.9 283.82-30.15 289.27-32.5 289.27-24.9 295.42-24.9 295.42-19.65 289.27-19.65 289.27-8.25Q289.27-6.08 289.89-5.24 290.5-4.4 291.57-4.4L291.57-4.4Q292.67-4.4 293.9-4.98 295.12-5.55 295.82-6.15L295.82-6.15 297.02-1.1Q296.25-0.55 295.01-0.14 293.77 0.28 292.51 0.51 291.25 0.75 290.42 0.75ZM308.47-28.95L301.47-28.95 301.47-35.6 308.47-35.6 308.47-28.95ZM308.22 0L301.72 0 301.72-24.9 308.22-24.9 308.22 0ZM325.57 0.5L325.57 0.5Q320.07 0.5 317.07-2.95 314.07-6.4 314.07-12.5L314.07-12.5Q314.07-18.65 317.17-22.08 320.27-25.5 325.77-25.5L325.77-25.5Q331.29-25.5 334.18-21.96 337.07-18.43 337.07-12.5L337.07-12.5Q337.07-6.58 334.08-3.04 331.09 0.5 325.57 0.5ZM325.67-4.5L325.67-4.5Q330.42-4.5 330.42-12.5L330.42-12.5Q330.42-20.55 325.67-20.55L325.67-20.55Q323.32-20.55 322.02-18.69 320.72-16.82 320.72-12.5L320.72-12.5Q320.72-8.2 322.02-6.35 323.32-4.5 325.67-4.5ZM349.27 0L342.87 0 342.87-24.9 348.67-24.9 348.79-21.63Q349.77-23.13 351.52-24.31 353.27-25.5 356.12-25.5L356.12-25.5Q359.92-25.5 361.77-23.1 363.62-20.7 363.62-16.45L363.62-16.45 363.62 0 357.22 0 357.22-15.9Q357.22-17.98 356.34-19.26 355.47-20.55 353.67-20.55L353.67-20.55Q351.92-20.55 350.59-19.26 349.27-17.98 349.27-15.9L349.27-15.9 349.27 0ZM388.51 0.75L388.51 0.75Q384.29 0.75 382.8-1.45 381.31-3.65 381.31-8.1L381.31-8.1 381.31-19.65 378.06-19.65 378.06-24.9 381.56-24.9 381.91-30.15 387.36-32.5 387.36-24.9 393.51-24.9 393.51-19.65 387.36-19.65 387.36-8.25Q387.36-6.08 387.97-5.24 388.59-4.4 389.66-4.4L389.66-4.4Q390.76-4.4 391.99-4.98 393.21-5.55 393.91-6.15L393.91-6.15 395.11-1.1Q394.34-0.55 393.1-0.14 391.86 0.28 390.6 0.51 389.34 0.75 388.51 0.75ZM409.16 0.5L409.16 0.5Q403.66 0.5 400.66-2.95 397.66-6.4 397.66-12.5L397.66-12.5Q397.66-18.65 400.76-22.08 403.86-25.5 409.36-25.5L409.36-25.5Q414.88-25.5 417.77-21.96 420.66-18.43 420.66-12.5L420.66-12.5Q420.66-6.58 417.67-3.04 414.68 0.5 409.16 0.5ZM409.26-4.5L409.26-4.5Q414.01-4.5 414.01-12.5L414.01-12.5Q414.01-20.55 409.26-20.55L409.26-20.55Q406.91-20.55 405.61-18.69 404.31-16.82 404.31-12.5L404.31-12.5Q404.31-8.2 405.61-6.35 406.91-4.5 409.26-4.5ZM442.85 0L436.45 0 436.45-34.85 454.65-34.85 454.65-29.35 442.85-29.35 442.85-20.2 453.15-20.2 453.15-14.6 442.85-14.6 442.85 0ZM465.95-28.95L458.95-28.95 458.95-35.6 465.95-35.6 465.95-28.95ZM465.7 0L459.2 0 459.2-24.9 465.7-24.9 465.7 0ZM479.55 0L473.15 0 473.15-24.9 478.95-24.9 479.07-21.63Q480.05-23.13 481.8-24.31 483.55-25.5 486.4-25.5L486.4-25.5Q490.2-25.5 492.05-23.1 493.9-20.7 493.9-16.45L493.9-16.45 493.9 0 487.5 0 487.5-15.9Q487.5-17.98 486.62-19.26 485.75-20.55 483.95-20.55L483.95-20.55Q482.2-20.55 480.87-19.26 479.55-17.98 479.55-15.9L479.55-15.9 479.55 0ZM507.89-28.95L500.89-28.95 500.89-35.6 507.89-35.6 507.89-28.95ZM507.64 0L501.14 0 501.14-24.9 507.64-24.9 507.64 0ZM521.89 0.45L521.89 0.45Q519.17 0.45 517.43-0.06 515.69-0.58 514.73-1.24 513.77-1.9 513.39-2.35L513.39-2.35 515.24-7.1Q516.34-6.2 518.05-5.33 519.77-4.45 522.04-4.45L522.04-4.45Q523.82-4.45 524.53-5.18 525.24-5.9 525.24-6.75L525.24-6.75Q525.24-7.93 523.62-8.88 521.99-9.83 519.84-10.75L519.84-10.75Q518.57-11.3 517.14-12.15 515.72-13 514.7-14.4 513.69-15.8 513.69-18L513.69-18Q513.69-21.38 516.15-23.39 518.62-25.4 523.14-25.4L523.14-25.4Q526.04-25.4 528.05-24.54 530.07-23.68 530.74-23L530.74-23 529.04-18.5Q528.07-19.25 526.57-19.93 525.07-20.6 523.34-20.6L523.34-20.6Q521.44-20.6 520.69-20.1 519.94-19.6 519.94-18.5L519.94-18.5Q519.94-17.28 521.28-16.49 522.62-15.7 524.49-14.95L524.49-14.95Q527.62-13.73 529.53-11.94 531.44-10.15 531.44-7.4L531.44-7.4Q531.44-5.35 530.49-3.56 529.54-1.78 527.44-0.66 525.34 0.45 521.89 0.45ZM543.29 0L537.14 0 537.14-38.1 543.04-38.1 543.04-25.5 542.91-21.75Q543.91-23.2 545.71-24.35 547.51-25.5 550.49-25.5L550.49-25.5Q554.24-25.5 556.09-23.1 557.94-20.7 557.94-16.45L557.94-16.45 557.94 0 551.54 0 551.54-15.8Q551.54-17.88 550.55-19.16 549.56-20.45 547.79-20.45L547.79-20.45Q546.04-20.45 544.66-19.16 543.29-17.88 543.29-15.8L543.29-15.8 543.29 0ZM567.84 8.15L563.54 8.15Q563.81 7.48 564.01 5.75 564.21 4.03 564.32 1.85 564.44-0.33 564.44-2.35L564.44-2.35 564.44-7.45 570.09-7.45 570.09-3.55Q570.09-1.23 569.76 1.15 569.44 3.53 568.92 5.41 568.41 7.3 567.84 8.15L567.84 8.15ZM593.08 0L586.68 0 586.68-34.85 604.88-34.85 604.88-29.35 593.08-29.35 593.08-20.2 603.38-20.2 603.38-14.6 593.08-14.6 593.08 0ZM615.58 0L609.48 0 609.48-38 615.58-38 615.58 0ZM631.98 0.5L631.98 0.5Q626.48 0.5 623.48-2.95 620.48-6.4 620.48-12.5L620.48-12.5Q620.48-18.65 623.58-22.08 626.68-25.5 632.18-25.5L632.18-25.5Q637.7-25.5 640.59-21.96 643.48-18.43 643.48-12.5L643.48-12.5Q643.48-6.58 640.49-3.04 637.5 0.5 631.98 0.5ZM632.08-4.5L632.08-4.5Q636.83-4.5 636.83-12.5L636.83-12.5Q636.83-20.55 632.08-20.55L632.08-20.55Q629.73-20.55 628.43-18.69 627.13-16.82 627.13-12.5L627.13-12.5Q627.13-8.2 628.43-6.35 629.73-4.5 632.08-4.5ZM655.27 0L649.02 0 649.02-24.9 654.67-24.9 654.97-20.5Q655.37-21.48 656.21-22.58 657.05-23.68 658.54-24.44 660.02-25.2 662.37-25.2L662.37-25.2Q663.1-25.2 663.65-25.1 664.2-25 664.67-24.8L664.67-24.8 663.27-18.25Q662.47-19.05 660.82-19.05L660.82-19.05Q658.9-19.05 657.67-18.26 656.45-17.48 655.86-16.5 655.27-15.53 655.27-15L655.27-15 655.27 0ZM677.97 0.65L677.97 0.65Q673.77 0.65 671.2-1.11 668.62-2.88 667.45-5.79 666.27-8.7 666.27-12.15L666.27-12.15Q666.27-15.78 667.61-18.81 668.95-21.85 671.53-23.68 674.12-25.5 677.87-25.5L677.87-25.5Q683.47-25.5 685.7-22.26 687.92-19.03 687.92-13.1L687.92-13.1Q687.92-12.58 687.9-11.78 687.87-10.98 687.82-10.4L687.82-10.4 672.82-10.4Q672.97-7.45 674.48-5.78 676-4.1 679.02-4.1L679.02-4.1Q680.57-4.1 682.35-4.79 684.12-5.48 684.97-6.45L684.97-6.45 686.97-1.7Q685.97-1.03 683.81-0.19 681.65 0.65 677.97 0.65ZM672.77-14.3L672.77-14.3 681.57-14.3Q681.57-16.93 681.11-18.31 680.65-19.7 679.85-20.23 679.05-20.75 678.02-20.75L678.02-20.75Q675.47-20.75 674.2-18.86 672.92-16.98 672.77-14.3ZM700.62 0.45L700.62 0.45Q697.89 0.45 696.16-0.06 694.42-0.58 693.46-1.24 692.49-1.9 692.12-2.35L692.12-2.35 693.97-7.1Q695.07-6.2 696.78-5.33 698.49-4.45 700.77-4.45L700.77-4.45Q702.54-4.45 703.26-5.18 703.97-5.9 703.97-6.75L703.97-6.75Q703.97-7.93 702.34-8.88 700.72-9.83 698.57-10.75L698.57-10.75Q697.29-11.3 695.87-12.15 694.44-13 693.43-14.4 692.42-15.8 692.42-18L692.42-18Q692.42-21.38 694.88-23.39 697.34-25.4 701.87-25.4L701.87-25.4Q704.77-25.4 706.78-24.54 708.79-23.68 709.47-23L709.47-23 707.77-18.5Q706.79-19.25 705.29-19.93 703.79-20.6 702.07-20.6L702.07-20.6Q700.17-20.6 699.42-20.1 698.67-19.6 698.67-18.5L698.67-18.5Q698.67-17.28 700.01-16.49 701.34-15.7 703.22-14.95L703.22-14.95Q706.34-13.73 708.26-11.94 710.17-10.15 710.17-7.4L710.17-7.4Q710.17-5.35 709.22-3.56 708.27-1.78 706.17-0.66 704.07 0.45 700.62 0.45ZM734.46 0L725.51 0 725.51-34.85 734.51-34.85Q742.09-34.85 746.2-30.61 750.31-26.38 750.31-17.85L750.31-17.85Q750.31-12.4 748.49-8.39 746.66-4.38 743.13-2.19 739.59 0 734.46 0L734.46 0ZM734.31-29.85L734.31-29.85 731.96-29.85 731.96-5.5 734.31-5.5Q737.06-5.5 738.89-6.54 740.71-7.58 741.8-9.31 742.89-11.05 743.35-13.24 743.81-15.43 743.81-17.7L743.81-17.7Q743.81-20.85 742.94-23.63 742.06-26.4 739.99-28.13 737.91-29.85 734.31-29.85ZM765.61 0.65L765.61 0.65Q761.41 0.65 758.84-1.11 756.26-2.88 755.09-5.79 753.91-8.7 753.91-12.15L753.91-12.15Q753.91-15.78 755.25-18.81 756.59-21.85 759.17-23.68 761.76-25.5 765.51-25.5L765.51-25.5Q771.11-25.5 773.34-22.26 775.56-19.03 775.56-13.1L775.56-13.1Q775.56-12.58 775.54-11.78 775.51-10.98 775.46-10.4L775.46-10.4 760.46-10.4Q760.61-7.45 762.12-5.78 763.64-4.1 766.66-4.1L766.66-4.1Q768.21-4.1 769.99-4.79 771.76-5.48 772.61-6.45L772.61-6.45 774.61-1.7Q773.61-1.03 771.45-0.19 769.29 0.65 765.61 0.65ZM760.41-14.3L760.41-14.3 769.21-14.3Q769.21-16.93 768.75-18.31 768.29-19.7 767.49-20.23 766.69-20.75 765.66-20.75L765.66-20.75Q763.11-20.75 761.84-18.86 760.56-16.98 760.41-14.3ZM787.66 0L781.56 0 781.56-38 787.66-38 787.66 0ZM801.96-28.95L794.96-28.95 794.96-35.6 801.96-35.6 801.96-28.95ZM801.71 0L795.21 0 795.21-24.9 801.71-24.9 801.71 0ZM819.7 0L815.25 0 805.15-24.9 812.15-24.9 816.45-12.45 817.55-8.35 818.55-12.45 822.7-24.9 829.3-24.9 819.7 0ZM842.8 0.65L842.8 0.65Q838.6 0.65 836.03-1.11 833.45-2.88 832.28-5.79 831.1-8.7 831.1-12.15L831.1-12.15Q831.1-15.78 832.44-18.81 833.78-21.85 836.36-23.68 838.95-25.5 842.7-25.5L842.7-25.5Q848.3-25.5 850.53-22.26 852.75-19.03 852.75-13.1L852.75-13.1Q852.75-12.58 852.73-11.78 852.7-10.98 852.65-10.4L852.65-10.4 837.65-10.4Q837.8-7.45 839.31-5.78 840.83-4.1 843.85-4.1L843.85-4.1Q845.4-4.1 847.18-4.79 848.95-5.48 849.8-6.45L849.8-6.45 851.8-1.7Q850.8-1.03 848.64-0.19 846.48 0.65 842.8 0.65ZM837.6-14.3L837.6-14.3 846.4-14.3Q846.4-16.93 845.94-18.31 845.48-19.7 844.68-20.23 843.88-20.75 842.85-20.75L842.85-20.75Q840.3-20.75 839.03-18.86 837.75-16.98 837.6-14.3ZM864.65 0L858.4 0 858.4-24.9 864.05-24.9 864.35-20.5Q864.75-21.48 865.59-22.58 866.42-23.68 867.91-24.44 869.4-25.2 871.75-25.2L871.75-25.2Q872.47-25.2 873.02-25.1 873.57-25 874.05-24.8L874.05-24.8 872.65-18.25Q871.85-19.05 870.2-19.05L870.2-19.05Q868.27-19.05 867.05-18.26 865.82-17.48 865.24-16.5 864.65-15.53 864.65-15L864.65-15 864.65 0ZM884.55 0.45L884.55 0.45Q881.82 0.45 880.08-0.06 878.35-0.58 877.38-1.24 876.42-1.9 876.05-2.35L876.05-2.35 877.9-7.1Q879-6.2 880.71-5.33 882.42-4.45 884.7-4.45L884.7-4.45Q886.47-4.45 887.18-5.18 887.9-5.9 887.9-6.75L887.9-6.75Q887.9-7.93 886.27-8.88 884.65-9.83 882.5-10.75L882.5-10.75Q881.22-11.3 879.8-12.15 878.37-13 877.36-14.4 876.35-15.8 876.35-18L876.35-18Q876.35-21.38 878.81-23.39 881.27-25.4 885.8-25.4L885.8-25.4Q888.7-25.4 890.71-24.54 892.72-23.68 893.4-23L893.4-23 891.7-18.5Q890.72-19.25 889.22-19.93 887.72-20.6 886-20.6L886-20.6Q884.1-20.6 883.35-20.1 882.6-19.6 882.6-18.5L882.6-18.5Q882.6-17.28 883.93-16.49 885.27-15.7 887.15-14.95L887.15-14.95Q890.27-13.73 892.18-11.94 894.1-10.15 894.1-7.4L894.1-7.4Q894.1-5.35 893.15-3.56 892.2-1.78 890.1-0.66 888 0.45 884.55 0.45Z" opacity="1" transform="matrix(1,0,0,1,0,0)" fill="#ffc604" class="slogan-text-1" data-fill-palette-color="secondary" id="text-1"></path></svg></g></svg></g></svg></g></svg></g></svg></g><defs></defs></svg><rect width="258.06945325936107" height="280" fill="none" stroke="none" visibility="hidden"></rect></g></svg></g></svg>